<?xml version="1.0" standalone="no"?>
<!DOCTYPE svg PUBLIC "-//W3C//DTD SVG 20010904//EN"
 "http://www.w3.org/TR/2001/REC-SVG-20010904/DTD/svg10.dtd">
<svg version="1.0" xmlns="http://www.w3.org/2000/svg"
 width="1280.000000pt" height="1280.000000pt" viewBox="0 0 1280.000000 1280.000000"
 preserveAspectRatio="xMidYMid meet">
<metadata>
Created by potrace 1.15, written by Peter Selinger 2001-2017
</metadata>
<g transform="translate(0.000000,1280.000000) scale(0.100000,-0.100000)"
fill="#000000" stroke="none">
<path d="M7999 10419 c-15 -16 -24 -29 -22 -29 3 0 -1 -7 -8 -16 -7 -9 -14
-26 -14 -37 -3 -46 -18 -97 -32 -109 -14 -11 -15 -10 -8 12 4 14 14 38 22 53
8 16 12 31 9 34 -3 3 -8 -2 -12 -11 -4 -9 -30 -29 -58 -43 -28 -14 -77 -43
-108 -65 -32 -21 -58 -35 -58 -30 0 17 146 148 200 180 30 17 51 32 46 32 -21
0 -144 -81 -196 -129 -30 -28 -55 -51 -57 -51 -1 0 0 24 2 53 4 47 3 46 -8
-16 -9 -49 -19 -75 -39 -96 -16 -16 -28 -34 -28 -40 0 -11 -39 -35 -46 -28 -2
2 6 16 18 32 l21 28 -22 -13 c-30 -15 -36 -8 -32 42 4 64 8 75 37 115 14 21
17 28 6 16 -11 -13 -23 -23 -27 -23 -3 0 -4 10 -1 23 6 20 5 20 -3 2 -12 -27
-19 -48 -17 -58 0 -5 -33 -22 -74 -38 -41 -17 -86 -35 -100 -41 -14 -7 -36
-12 -50 -13 -33 -2 -58 -13 -97 -42 -42 -31 -43 -9 -2 26 17 14 47 41 66 59
19 18 46 38 60 43 14 5 23 12 20 15 -6 6 -124 -53 -133 -67 -6 -11 -50 -34
-84 -44 -22 -7 -23 -6 -11 9 7 9 10 16 6 16 -5 0 0 10 11 22 22 24 7 18 -44
-20 -47 -36 -50 -21 -7 38 51 69 38 63 -19 -10 -50 -64 -72 -77 -56 -34 13 34
13 41 -2 22 -12 -14 -68 -34 -68 -24 0 9 145 118 170 128 14 6 39 14 55 19 27
8 25 8 -10 4 -43 -4 -240 -98 -265 -126 -8 -9 -32 -29 -52 -44 -33 -24 -38
-25 -38 -10 0 17 -1 17 -20 0 -11 -10 -23 -15 -28 -11 -4 4 2 14 12 22 23 16
14 19 -15 4 -10 -6 -19 -9 -19 -6 0 14 24 56 32 56 5 0 7 4 4 9 -3 5 1 14 9
21 8 7 15 18 15 24 -1 6 -12 -2 -25 -19 -27 -32 -32 -24 -14 22 l10 28 -20
-22 c-12 -12 -21 -27 -21 -32 0 -20 -23 -60 -37 -66 -11 -4 -14 0 -9 12 5 15
4 15 -9 -1 -8 -11 -15 -16 -15 -12 0 5 -7 2 -17 -5 -15 -13 -15 -12 0 18 9 17
27 39 39 48 l23 17 -27 -5 c-16 -2 -28 0 -28 5 0 4 -10 2 -22 -6 -13 -8 -46
-24 -75 -35 -29 -11 -73 -34 -100 -50 -26 -16 -49 -28 -51 -26 -2 2 2 13 8 25
8 15 8 20 1 16 -6 -4 -11 0 -11 11 -1 17 -1 17 -11 1 -5 -10 -19 -18 -29 -18
-14 0 -18 5 -13 18 3 9 -4 5 -16 -10 -12 -16 -29 -28 -37 -28 -25 0 19 63 62
87 49 28 32 30 -19 3 -47 -25 -47 -15 0 41 23 28 27 35 10 20 -14 -13 -38 -41
-53 -62 -15 -22 -31 -36 -38 -32 -6 3 -8 3 -5 -1 7 -8 -33 -56 -46 -56 -14 0
6 52 45 116 49 80 36 76 -16 -6 -22 -33 -43 -60 -47 -60 -11 0 2 60 15 78 7 8
7 12 -1 12 -7 0 -9 5 -6 10 4 6 8 25 10 43 l3 32 -16 -38 c-10 -21 -20 -36
-23 -32 -3 3 -18 -13 -33 -35 -15 -22 -30 -39 -34 -37 -4 2 -15 -4 -24 -15
-11 -10 -13 -18 -6 -18 6 0 9 -2 6 -5 -3 -3 -12 -3 -21 1 -13 4 -14 10 -7 24
19 36 10 43 -12 10 -29 -42 -53 -53 -43 -19 16 50 15 53 -5 10 -11 -24 -23
-41 -26 -38 -3 3 -1 14 5 25 19 35 12 34 -21 -4 -29 -33 -75 -60 -85 -51 -2 3
20 31 49 63 l53 59 -42 -33 c-24 -19 -45 -37 -48 -42 -7 -12 -65 -40 -65 -32
0 3 12 20 28 36 20 23 21 26 4 11 l-23 -19 6 29 c4 17 18 50 31 74 13 24 17
38 9 31 -8 -6 -29 -47 -47 -91 -17 -43 -33 -77 -36 -75 -7 7 20 91 39 122 22
36 24 48 7 38 -8 -5 -9 -1 -5 12 7 18 7 18 -8 0 -8 -11 -15 -22 -15 -25 -1 -9
-51 -43 -56 -38 -2 2 0 17 6 33 10 29 10 29 -7 8 -10 -12 -40 -36 -66 -54 -27
-18 -65 -46 -85 -64 -23 -20 -34 -25 -29 -13 3 9 2 17 -3 17 -6 0 -10 -11 -10
-24 0 -13 -9 -34 -20 -47 l-20 -24 3 25 c2 14 9 38 15 53 7 16 12 32 12 37 0
5 5 12 12 16 8 5 9 2 5 -9 -3 -10 -3 -17 1 -17 4 0 16 29 27 64 l20 63 -30
-31 c-17 -17 -29 -34 -28 -38 2 -3 -8 -20 -22 -37 -15 -16 -26 -31 -25 -33 4
-10 -14 -37 -28 -43 -11 -4 -8 3 8 21 25 26 25 26 3 20 -14 -5 -23 -3 -23 4 0
15 46 60 61 60 7 0 10 3 7 6 -3 3 -22 -2 -42 -10 -20 -8 -36 -11 -36 -5 0 24
43 90 68 103 15 8 22 15 16 16 -14 0 -120 -68 -164 -107 -19 -16 -45 -35 -57
-42 -21 -11 -23 -9 -23 14 0 17 7 29 23 35 22 9 22 9 0 9 -12 1 -24 7 -26 14
-3 7 -6 5 -6 -5 -1 -10 -10 -22 -21 -28 -22 -12 -26 -1 -7 20 6 8 -1 3 -18
-11 -41 -34 -102 -79 -109 -79 -21 0 19 50 89 109 31 26 33 30 10 16 -16 -10
-39 -26 -51 -36 -11 -11 -25 -19 -32 -19 -6 0 -16 -8 -21 -17 -6 -10 -11 -14
-11 -10 0 4 -15 -3 -33 -17 -19 -15 -39 -26 -45 -26 -6 0 -16 -8 -21 -17 -13
-22 -15 0 -3 25 5 9 22 44 38 77 16 33 49 85 73 115 25 31 32 44 17 30 -42
-38 -89 -106 -135 -195 -23 -44 -40 -71 -37 -60 3 11 7 36 10 55 4 32 2 30
-21 -20 -14 -30 -28 -49 -30 -42 -3 8 0 19 6 25 19 19 12 31 -8 13 -19 -17
-19 -17 -17 19 3 37 35 81 71 95 20 9 20 9 -1 9 -11 1 -29 -6 -40 -14 -10 -8
-27 -15 -38 -15 -16 0 -18 5 -12 43 4 23 13 52 21 64 9 14 11 24 5 28 -6 3
-10 2 -10 -4 0 -5 -10 -13 -22 -16 -44 -13 -154 -84 -223 -144 -68 -59 -101
-75 -55 -26 l24 26 -43 -16 c-54 -19 -52 -19 -45 3 4 13 2 12 -7 -3 -16 -26
-29 -34 -45 -28 -6 2 -44 -12 -83 -31 -39 -20 -71 -34 -71 -30 0 3 5 15 12 27
7 12 13 28 14 35 5 26 84 121 129 153 52 38 60 50 13 21 -42 -26 -130 -106
-225 -201 -40 -41 -73 -70 -73 -63 0 6 5 14 11 18 7 4 8 9 1 13 -21 13 7 50
47 62 23 7 41 16 41 20 0 7 -50 -6 -83 -23 -30 -15 -33 0 -11 42 15 27 17 37
8 33 -10 -4 -12 0 -7 13 4 14 0 12 -14 -6 -40 -47 -32 -14 9 40 22 30 31 46
20 36 -12 -10 -35 -40 -52 -66 -17 -26 -40 -50 -50 -53 -28 -7 -25 8 8 32 17
13 20 19 8 14 -14 -4 -17 -3 -12 6 4 7 -13 -8 -39 -33 -49 -48 -68 -58 -58
-28 5 14 3 14 -11 -3 -17 -19 -17 -19 -11 10 9 44 -9 18 -24 -32 -13 -47 -45
-75 -103 -91 -30 -8 -38 -8 -38 2 0 20 47 66 66 66 10 0 14 3 11 7 -4 3 -1 13
6 21 11 14 9 14 -13 2 -14 -8 -29 -14 -35 -15 -15 0 -57 -25 -84 -49 -21 -18
-20 -14 7 26 35 51 27 77 -9 28 -16 -21 -25 -27 -31 -18 -6 10 -8 9 -8 -3 0
-29 -25 -68 -50 -79 l-25 -11 25 21 c23 20 23 20 2 10 -12 -6 -28 -8 -34 -4
-6 4 -8 3 -5 -3 6 -10 -19 -28 -34 -25 -4 1 -15 -8 -24 -18 -26 -28 -35 -25
-35 13 0 33 35 77 85 106 18 11 17 11 -10 6 -83 -15 -85 -15 -85 -1 0 8 12 24
27 36 20 15 22 18 6 11 -33 -17 -35 -15 -29 37 5 45 4 44 -7 -10 -12 -55 -42
-103 -58 -92 -5 3 -13 -5 -18 -18 -9 -22 -91 -77 -91 -61 0 4 10 24 21 43 l21
35 -24 -22 c-13 -13 -32 -23 -41 -23 -9 0 -18 -4 -22 -9 -12 -21 -84 -71 -89
-63 -3 5 11 29 32 53 l37 44 -40 -34 c-22 -19 -48 -49 -58 -67 -9 -19 -22 -34
-28 -34 -6 0 -6 6 -1 18 5 9 8 22 5 28 -2 5 14 30 34 54 l38 45 -32 -23 c-18
-13 -36 -28 -40 -35 -5 -7 -16 -18 -26 -26 -16 -13 -17 -12 -7 15 6 16 23 43
38 59 l27 30 -32 -29 c-34 -31 -41 -29 -22 5 6 11 8 25 6 32 -2 7 -12 -12 -20
-42 -24 -79 -117 -212 -117 -168 0 9 5 19 11 23 8 4 6 10 -6 17 -16 8 -15 12
11 34 24 20 25 22 6 13 -34 -17 -39 -4 -11 27 13 14 18 23 12 19 -7 -4 -13 -3
-13 3 0 5 8 15 18 20 9 6 12 11 7 11 -12 0 -66 -52 -89 -85 -13 -19 -14 -18
-12 15 2 19 4 40 5 47 0 6 9 14 19 16 16 4 16 5 0 6 -23 1 -23 9 -1 34 10 11
12 17 6 13 -17 -10 -16 3 2 38 24 45 12 41 -25 -9 -20 -27 -37 -41 -40 -34 -5
7 -9 5 -13 -5 -9 -22 -31 -20 -23 2 5 12 2 11 -11 -5 -18 -22 -123 -59 -123
-43 0 5 5 21 10 36 6 15 9 29 6 31 -2 2 -9 -13 -16 -34 -12 -36 -34 -63 -53
-63 -4 0 -5 6 0 12 4 7 -11 -2 -32 -20 -22 -18 -42 -27 -43 -22 -2 6 4 18 14
26 18 13 18 14 -1 10 -23 -3 -62 -19 -105 -41 -49 -25 -35 0 43 77 39 39 57
61 38 48 -18 -13 -67 -56 -107 -96 -41 -40 -74 -70 -74 -67 0 3 9 22 21 42 19
32 19 34 1 12 -10 -13 -21 -20 -24 -15 -3 5 -4 4 -3 -1 5 -23 -31 -80 -53 -83
-12 -2 -22 -1 -22 3 0 12 54 90 93 134 23 25 33 39 22 31 -18 -14 -44 -42 -85
-92 l-17 -22 -1 29 c0 28 34 108 62 146 6 8 -1 2 -15 -13 -30 -33 -93 -158
-103 -205 -7 -31 -44 -52 -67 -37 -6 3 -18 -1 -27 -8 -36 -32 -42 -30 -26 9
18 43 93 144 138 186 l31 29 -30 -20 c-17 -11 -50 -43 -75 -70 -24 -28 -48
-48 -53 -45 -6 3 -7 1 -3 -5 4 -7 -4 -31 -18 -54 -28 -47 -37 -28 -10 23 20
40 13 46 -22 17 -39 -32 -105 -96 -80 -78 56 42 57 41 12 -10 -27 -30 -53 -65
-59 -77 -10 -22 -27 -31 -27 -15 0 4 11 24 25 43 13 20 22 39 18 42 -5 6 22
50 61 98 12 14 0 2 -26 -25 -26 -28 -71 -88 -100 -133 -29 -45 -57 -82 -61
-82 -4 -1 -4 7 1 17 10 18 24 82 18 82 -1 0 -16 -32 -31 -70 -28 -68 -49 -99
-62 -87 -8 9 61 150 103 211 35 51 34 51 -26 -14 -57 -62 -140 -206 -140 -243
0 -9 -5 -19 -10 -22 -20 -12 -5 223 19 295 26 80 26 89 0 30 -11 -24 -27 -87
-36 -140 -13 -82 -20 -100 -47 -128 -31 -33 -31 -33 -38 -10 -5 21 -6 20 -7
-7 -1 -38 -36 -95 -57 -95 -23 0 -11 59 26 127 20 39 23 50 11 44 -9 -5 -34
-51 -55 -103 -27 -64 -50 -102 -73 -121 -18 -16 -31 -32 -28 -37 3 -4 -3 -14
-13 -21 -15 -13 -16 -12 -3 4 8 10 9 17 3 17 -24 0 -157 -190 -149 -213 1 -5
17 13 34 40 35 54 160 179 170 169 3 -3 0 -24 -7 -46 -9 -29 -28 -51 -65 -79
-93 -71 -269 -310 -267 -364 3 -72 14 -77 41 -17 13 28 27 47 33 44 5 -3 16 2
23 12 19 25 19 1 1 -41 -9 -22 -10 -35 -2 -48 9 -15 5 -23 -28 -50 -47 -38
-128 -145 -120 -158 3 -6 19 9 34 33 31 47 120 138 120 123 -1 -6 -7 -21 -15
-35 -22 -38 -18 -60 5 -30 l20 25 0 -33 c0 -24 -14 -50 -57 -106 -32 -40 -71
-95 -86 -122 -15 -27 -34 -60 -42 -74 -19 -33 -75 -185 -75 -204 0 -7 7 -16
15 -20 10 -4 25 17 54 77 21 45 46 91 56 102 11 13 9 7 -4 -17 -12 -20 -17
-38 -12 -40 7 -2 7 -26 -1 -71 -9 -56 -9 -70 2 -77 11 -7 11 -11 1 -24 -7 -8
-14 -28 -15 -43 -1 -15 -6 -38 -10 -50 -4 -13 -3 -23 2 -23 6 0 13 12 17 27 5
21 8 24 16 12 17 -27 9 -61 -41 -160 -27 -55 -52 -117 -55 -137 -4 -20 -13
-50 -20 -67 -23 -52 -83 -248 -90 -295 -4 -24 -18 -61 -31 -81 -30 -48 -55
-109 -45 -109 5 0 21 25 36 55 16 30 34 55 42 55 7 0 13 7 13 15 0 8 7 15 15
15 9 0 15 9 15 25 0 23 77 122 87 112 2 -2 -6 -24 -17 -48 -11 -24 -20 -54
-20 -67 0 -12 -17 -53 -38 -90 -47 -82 -65 -133 -53 -145 5 -5 11 2 15 18 4
14 11 23 16 20 5 -3 18 12 30 35 11 22 22 40 24 40 5 0 -69 -189 -92 -235 -24
-47 -19 -61 8 -25 10 14 22 22 25 18 4 -4 -8 -26 -28 -50 -38 -48 -61 -87 -54
-94 3 -3 16 14 30 38 14 24 33 51 43 60 18 16 19 13 17 -81 -1 -90 -4 -101
-33 -148 -18 -28 -30 -59 -28 -70 3 -13 12 -3 31 35 15 28 31 52 36 52 17 0
-6 -66 -63 -181 -41 -82 -57 -124 -54 -145 4 -28 4 -27 17 15 15 51 56 141 88
193 15 25 28 35 38 32 11 -5 15 1 15 22 0 20 3 25 11 17 20 -20 -11 -133 -47
-175 -18 -20 -38 -46 -44 -58 -13 -25 -3 -43 10 -19 5 9 18 27 29 40 l20 24
-6 -23 c-4 -19 -2 -21 13 -15 18 7 18 6 0 -22 -29 -44 -46 -78 -46 -92 0 -23
15 -14 26 15 13 35 77 133 82 127 10 -9 -33 -153 -56 -190 -48 -76 -93 -195
-73 -195 5 0 12 12 15 26 12 45 68 164 78 164 6 0 8 -6 5 -14 -3 -7 -2 -31 3
-52 8 -36 5 -47 -46 -142 -30 -57 -68 -121 -85 -142 -17 -21 -29 -44 -27 -52
3 -9 9 -6 17 10 6 12 18 22 26 22 7 0 17 10 20 23 8 25 54 77 68 77 23 0 -10
-59 -64 -118 -53 -56 -109 -132 -109 -147 0 -17 21 1 48 42 17 27 51 71 76 98
l45 50 1 -46 c0 -26 -7 -63 -15 -82 -18 -42 -19 -57 -5 -57 6 0 10 7 10 15 0
8 5 15 10 15 12 0 12 -58 1 -117 -5 -26 -5 -43 1 -43 18 0 37 -27 44 -65 4
-24 13 -39 25 -42 17 -5 17 -7 2 -36 -23 -46 -31 -80 -23 -102 7 -18 10 -15
24 18 9 20 18 37 21 37 11 0 -7 -126 -23 -163 -12 -27 -17 -57 -14 -83 3 -35
-2 -50 -36 -100 -61 -90 -94 -164 -73 -164 5 0 13 10 17 23 4 12 20 46 36 74
26 45 32 51 44 39 19 -20 18 -39 -7 -81 -12 -20 -19 -38 -16 -41 3 -3 11 5 18
18 18 34 71 100 76 94 3 -2 -7 -24 -21 -49 -14 -24 -26 -48 -26 -53 1 -5 10 7
21 26 15 27 18 29 13 10 -3 -14 -12 -35 -20 -47 -8 -12 -11 -29 -8 -37 6 -15
-34 -102 -42 -93 -3 3 4 24 16 47 12 23 19 44 16 47 -3 4 -20 -25 -38 -63 -17
-38 -45 -87 -60 -108 -29 -41 -30 -59 -2 -35 15 12 16 12 11 -6 -24 -74 -34
-185 -17 -185 6 0 10 16 10 35 0 19 4 35 9 35 5 0 14 12 20 28 6 15 29 48 51
72 33 38 39 42 40 23 0 -11 -16 -40 -35 -63 -19 -23 -35 -47 -35 -53 0 -7 11
2 25 18 34 42 31 27 -10 -41 -31 -51 -45 -94 -30 -94 3 0 12 16 20 37 20 47
25 40 15 -23 -11 -71 -59 -159 -119 -223 -48 -51 -61 -71 -43 -71 4 0 15 13
25 29 19 33 82 91 99 91 6 0 -11 -23 -37 -51 -26 -28 -44 -53 -41 -56 3 -3 24
14 46 38 l41 44 -7 -63 c-4 -42 -2 -67 6 -76 9 -11 4 -28 -24 -78 -22 -40 -32
-69 -27 -77 6 -9 11 -10 15 -3 4 6 12 9 20 6 7 -3 18 5 24 18 10 21 11 19 11
-18 1 -50 11 -104 20 -104 3 0 4 40 3 88 -3 69 -1 91 11 100 13 11 14 8 6 -25
-12 -51 -11 -59 3 -45 7 7 15 12 18 12 8 0 -5 -96 -16 -125 -7 -17 -5 -18 7
-8 13 11 15 1 11 -80 -2 -51 -8 -105 -14 -120 -6 -15 -8 -30 -5 -34 4 -3 10 3
13 13 4 10 22 42 40 70 59 94 169 190 115 100 -23 -38 -35 -76 -24 -76 4 0 16
19 26 43 25 60 40 31 17 -32 -25 -63 -50 -189 -50 -248 -1 -26 -7 -59 -15 -73
-33 -57 -9 -54 27 3 15 24 46 60 68 81 l40 37 0 -34 c0 -21 -7 -41 -20 -52
-49 -45 -170 -244 -170 -282 0 -27 17 -11 28 25 12 39 111 206 118 199 3 -2 0
-17 -6 -32 -7 -20 -8 -31 0 -39 7 -7 10 -6 10 4 0 8 10 35 21 60 l21 45 24
-94 c13 -52 26 -96 29 -99 3 -3 -10 -24 -28 -46 -50 -62 -68 -94 -57 -101 5
-3 16 8 25 24 25 49 34 44 19 -11 -16 -63 -18 -88 -4 -88 6 0 10 9 10 21 0 31
30 129 40 129 4 0 20 20 34 45 15 25 31 45 36 45 19 0 21 -23 4 -67 -13 -33
-15 -48 -7 -50 7 -3 -6 -31 -33 -69 -41 -61 -54 -95 -36 -94 4 1 18 23 31 49
28 58 109 154 122 145 5 -3 -6 -27 -26 -54 -37 -50 -70 -119 -61 -127 3 -3 11
10 19 29 8 19 27 54 42 78 24 38 29 41 37 25 14 -25 3 -122 -22 -184 -21 -54
-28 -107 -8 -61 6 14 20 44 31 67 l20 43 19 -42 c23 -51 32 -46 13 7 -18 52
-18 75 -1 75 8 0 17 6 20 13 3 6 3 -4 0 -23 -6 -34 -5 -35 10 -13 10 13 23 20
32 16 12 -4 14 0 9 23 -3 16 -2 22 1 14 4 -8 12 -18 17 -22 7 -4 6 -43 -2
-120 -9 -82 -9 -132 -2 -183 6 -38 11 -73 11 -77 0 -5 4 -8 9 -8 5 0 17 26 27
57 17 57 18 57 28 31 13 -37 27 -36 19 2 -3 19 -1 30 6 30 6 0 11 -13 11 -29
0 -17 6 -31 16 -35 23 -9 23 -9 17 29 -3 19 -2 42 2 52 6 16 8 15 16 -6 5 -13
17 -55 25 -94 19 -81 40 -137 53 -137 5 0 0 26 -11 57 -11 32 -22 74 -24 93
-1 19 -5 46 -9 60 l-6 25 11 -24 c17 -38 24 -16 10 33 -12 45 -7 86 12 86 6 0
7 -15 3 -39 -4 -25 -2 -41 5 -46 8 -5 9 -24 5 -59 -6 -41 -5 -49 6 -39 10 10
15 9 26 -5 14 -16 14 -15 8 3 -16 46 -16 56 1 101 23 60 32 40 33 -68 1 -42 5
-79 10 -83 5 -3 12 -19 16 -35 9 -42 29 -52 23 -11 -5 34 17 45 25 13 3 -9 3
8 1 38 -7 81 12 31 26 -70 14 -101 45 -203 67 -221 19 -16 19 -17 -17 86 -11
33 -23 78 -26 100 l-5 40 16 -28 c24 -41 31 -25 11 23 -16 41 -16 42 9 88 35
63 53 87 61 79 4 -4 1 -13 -6 -22 -15 -18 -24 -115 -11 -115 6 0 13 16 17 35
8 42 24 46 24 6 0 -17 6 -31 16 -35 23 -9 24 -8 22 12 -2 28 3 98 7 87 2 -5 6
-27 10 -48 3 -20 11 -37 16 -37 6 0 8 9 5 20 -19 66 -19 67 -3 45 28 -39 28
-93 1 -147 -14 -27 -23 -57 -21 -66 3 -11 10 -3 22 25 19 45 35 48 35 7 0 -13
4 -24 9 -24 5 0 9 14 9 30 -1 17 2 33 5 37 4 3 7 -6 7 -20 0 -15 5 -27 10 -27
6 0 10 11 10 25 0 14 5 25 10 25 6 0 10 9 10 19 0 11 5 23 11 27 9 5 10 -2 6
-22 -15 -69 -20 -157 -9 -150 7 4 12 25 12 46 0 41 15 62 23 33 3 -10 8 -38
11 -63 4 -25 11 -52 16 -60 15 -25 22 -4 11 37 -21 74 -10 190 13 141 3 -7 4
2 3 20 -2 18 0 35 5 38 4 3 8 18 8 34 0 38 20 50 21 13 3 -123 13 -178 29
-168 5 3 10 -7 12 -22 3 -25 4 -26 18 -12 14 15 16 15 27 0 11 -13 12 -9 7 25
-4 28 -1 51 10 72 9 18 18 32 21 32 2 0 11 -24 19 -54 14 -46 14 -58 2 -87
-23 -57 -28 -79 -17 -79 5 0 15 17 22 37 17 53 59 124 70 117 5 -3 9 6 9 19 0
14 9 35 19 48 l20 24 -5 -60 c-3 -33 -12 -77 -20 -98 -15 -41 -19 -87 -6 -71
5 5 14 29 22 54 12 42 13 44 22 21 5 -14 6 -37 3 -53 -10 -46 13 -33 26 15 16
61 21 65 34 27 6 -19 17 -36 23 -38 7 -2 6 12 -4 43 -9 25 -14 48 -11 51 3 3
8 -8 12 -25 4 -17 10 -31 14 -31 4 0 2 21 -4 47 -11 41 -10 81 1 70 2 -1 11
-39 19 -83 15 -73 15 -86 1 -132 -8 -29 -11 -54 -6 -57 5 -3 14 14 21 37 6 24
14 37 16 31 8 -24 23 -13 17 11 -8 32 3 66 22 66 8 0 15 10 15 23 1 16 2 18 6
5 8 -32 21 -19 27 27 4 24 11 47 15 50 11 6 21 -55 21 -127 0 -32 5 -58 10
-58 6 0 10 12 10 26 0 17 4 23 12 18 8 -5 9 -2 3 12 -5 10 -11 45 -13 78 -4
67 12 98 22 42 4 -19 12 -38 18 -42 8 -5 9 2 3 22 -18 68 -21 100 -9 123 11
21 12 19 18 -30 10 -81 11 -131 3 -164 -4 -16 -4 -24 -1 -17 3 6 12 12 20 12
9 0 14 11 14 28 0 37 10 46 26 24 8 -11 11 -31 7 -55 -3 -23 -2 -37 5 -37 6 0
14 23 18 50 4 28 10 53 15 56 11 6 16 -22 23 -116 6 -84 23 -153 35 -146 4 3
2 33 -5 68 -17 79 -19 222 -3 195 10 -16 13 -26 18 -57 1 -3 5 1 10 9 13 21
31 3 32 -32 0 -32 16 -81 19 -62 1 6 2 51 1 100 0 93 2 99 14 31 5 -28 9 -35
15 -26 15 24 47 -15 55 -66 10 -70 25 -51 26 34 0 77 17 152 18 87 1 -16 6
-37 11 -45 11 -17 12 -12 12 43 0 50 13 47 34 -8 18 -47 34 -59 34 -25 0 26
27 26 35 -1 5 -14 -4 -40 -24 -79 -18 -33 -27 -61 -22 -65 6 -3 19 15 30 40
11 25 24 45 28 45 4 0 6 -26 5 -57 -2 -32 0 -55 4 -50 4 4 8 15 9 25 7 74 18
131 26 127 5 -4 9 -46 9 -96 0 -53 4 -89 10 -89 6 0 10 11 10 25 0 17 4 23 14
19 13 -5 13 1 0 42 -9 32 -11 51 -4 58 5 5 10 19 10 30 1 50 18 -14 24 -89 7
-93 15 -125 28 -125 6 0 7 7 4 16 -3 9 -9 41 -13 71 -5 45 -4 55 7 48 10 -6
11 -4 5 11 -4 10 -10 37 -12 59 -4 38 -3 39 12 20 9 -11 19 -18 23 -15 4 3 11
-19 15 -48 12 -76 27 -64 21 17 -4 44 -2 71 5 75 6 4 8 18 5 31 -3 13 -1 32 5
42 6 10 11 12 11 6 0 -7 5 -13 10 -13 6 0 9 14 7 33 -2 17 -2 24 0 15 2 -10
11 -18 19 -18 10 0 13 -6 9 -19 -13 -42 -35 -158 -35 -189 0 -19 6 -35 14 -38
7 -3 17 -24 21 -47 l8 -42 8 58 c12 82 24 100 33 48 8 -55 28 -54 20 1 -4 34
-3 39 6 25 19 -29 32 -19 15 13 -17 33 -21 85 -5 75 6 -3 10 -15 10 -27 0 -16
3 -18 14 -9 11 9 14 -1 19 -56 7 -80 33 -173 48 -173 7 0 8 8 4 18 -23 61 -36
260 -15 247 6 -3 10 -3 11 2 2 22 10 57 14 62 14 13 17 -14 6 -42 -7 -18 -15
-45 -17 -62 l-4 -30 12 25 c12 24 27 40 39 40 3 0 9 -24 12 -52 6 -57 25 -110
37 -103 5 3 2 26 -6 52 -10 33 -12 54 -5 68 5 11 12 33 16 48 3 15 19 42 35
59 l30 31 0 -29 c0 -38 17 -64 28 -46 6 8 11 -17 15 -65 8 -91 15 -123 29
-123 6 0 7 8 3 18 -3 9 -8 49 -11 87 l-4 70 15 -40 c8 -21 19 -42 23 -45 5 -3
13 -39 20 -81 12 -78 29 -136 38 -127 2 3 -1 32 -8 64 -18 80 -9 249 12 249 9
0 16 -11 18 -27 4 -33 18 -37 26 -8 16 56 17 65 7 50 -9 -13 -11 -13 -11 2 0
9 4 19 8 22 23 14 87 -66 78 -96 -12 -38 -15 -68 -8 -68 5 0 16 28 26 61 9 34
19 59 22 56 3 -3 -2 -29 -10 -58 -17 -56 -22 -136 -7 -109 5 8 11 35 15 60 9
59 38 149 43 133 9 -26 23 -12 24 25 2 30 3 32 6 10 5 -34 23 -37 24 -5 1 20
2 19 11 -5 6 -19 6 -44 -1 -78 -14 -64 -14 -130 -1 -130 6 0 10 25 10 55 0 42
3 55 15 55 8 0 15 6 15 13 0 6 5 4 11 -6 6 -10 9 -34 7 -53 -3 -25 0 -33 8
-30 9 3 17 -13 24 -47 6 -29 15 -59 20 -67 15 -25 23 -3 11 33 -25 74 -30 140
-14 180 9 21 19 35 24 30 5 -5 13 -42 19 -83 17 -126 60 -247 82 -234 4 3 1
15 -6 27 -23 36 -61 170 -49 174 7 3 9 27 7 63 -3 33 -1 60 4 60 5 0 12 -30
15 -66 2 -36 10 -71 16 -77 8 -8 9 1 5 36 -5 34 -3 47 5 47 8 0 10 8 6 20 -4
11 -2 20 4 20 6 0 11 13 11 29 0 17 5 33 10 36 6 3 10 -3 10 -14 0 -12 5 -21
10 -21 6 0 10 -41 10 -104 0 -57 3 -118 6 -135 13 -66 19 -25 16 108 -3 95 -1
145 8 157 9 15 10 7 6 -41 l-5 -60 29 35 c25 30 30 32 30 14 0 -11 5 -25 11
-31 8 -8 8 -22 0 -49 -13 -48 -14 -64 -2 -64 5 0 11 12 13 28 3 24 7 19 42
-45 42 -80 71 -91 31 -13 -29 57 -30 66 -11 86 22 21 26 17 26 -26 0 -22 5
-40 10 -40 6 0 10 15 10 33 1 48 17 108 34 125 13 13 14 3 9 -95 -4 -68 -2
-112 4 -116 6 -4 8 20 5 68 -6 98 5 128 23 60 8 -27 22 -68 32 -90 l18 -40 3
90 c3 102 16 131 25 56 6 -47 24 -97 32 -89 3 2 -2 27 -9 56 -12 45 -12 52 0
52 8 0 14 9 14 20 0 22 30 103 36 97 3 -2 -2 -30 -11 -63 -17 -65 -19 -104 -6
-104 4 0 11 26 13 58 10 101 58 177 58 90 0 -25 2 -28 14 -19 16 14 20 5 31
-69 4 -25 16 -67 26 -95 14 -37 17 -63 12 -105 -7 -69 3 -62 22 16 8 32 27 88
42 123 24 58 28 62 36 43 14 -31 29 -27 17 4 -13 32 -13 37 1 28 7 -4 9 2 7
17 -2 18 1 23 15 21 13 -2 17 5 18 30 1 30 3 28 19 -22 10 -30 23 -54 30 -52
8 2 10 -7 5 -28 -4 -19 -3 -30 4 -30 6 0 11 12 11 28 0 15 4 32 8 39 4 6 5
-36 4 -94 -4 -105 3 -173 16 -173 4 0 6 55 5 122 -1 68 0 115 3 106 3 -10 10
-18 15 -18 11 0 11 7 0 48 -7 22 -6 42 1 60 10 27 10 27 27 -22 10 -28 22 -51
29 -54 8 -2 6 11 -4 42 -9 25 -14 51 -11 58 7 24 37 -50 37 -94 0 -57 10 -90
25 -84 6 2 20 -9 29 -26 20 -32 34 -32 17 0 -14 26 -14 89 -1 97 6 3 10 -3 10
-14 0 -21 33 -115 50 -141 21 -33 18 0 -6 59 -19 45 -24 73 -19 97 7 41 25 55
25 19 0 -62 71 -275 92 -275 6 0 7 7 2 18 -17 39 -62 179 -68 212 -4 26 0 44
15 70 l21 34 15 -29 c9 -17 24 -38 34 -47 24 -23 34 -113 20 -178 -13 -61 -14
-80 -2 -80 4 0 12 24 18 53 l9 52 14 -28 c14 -29 37 -38 25 -9 -25 58 -27 72
-21 105 4 20 10 37 14 37 4 0 13 -25 21 -56 15 -65 40 -124 54 -124 5 0 6 8 1
17 -29 67 -54 155 -54 193 0 43 1 44 16 22 21 -31 54 -129 54 -164 0 -30 20
-40 21 -10 1 40 7 83 12 88 3 3 10 -11 17 -30 6 -20 16 -36 21 -36 12 0 12 -2
-7 54 -13 39 -14 53 -4 74 l12 27 19 -37 c23 -45 33 -49 25 -11 -5 21 0 36 17
57 l24 30 7 -40 c11 -63 17 -76 31 -70 8 3 15 -6 19 -25 3 -16 10 -29 15 -29
6 0 4 15 -5 35 -7 19 -14 42 -13 52 0 10 7 -1 16 -25 20 -58 26 -48 7 13 -8
27 -11 45 -6 40 5 -6 14 -28 20 -50 14 -47 28 -72 37 -63 4 3 -1 20 -9 37 -19
35 -23 79 -5 49 20 -35 29 -17 10 20 -17 34 -18 41 -5 72 l15 34 25 -54 c29
-63 31 -79 20 -176 -5 -49 -4 -74 3 -78 7 -5 11 11 11 48 0 31 3 56 8 56 4 0
17 -23 29 -51 12 -28 26 -48 31 -45 5 3 -2 28 -16 56 -33 67 -39 127 -16 171
l17 34 14 -33 c18 -45 34 -32 18 15 -14 41 -12 53 11 53 10 0 14 -13 14 -50 0
-27 8 -68 17 -90 18 -42 39 -57 24 -17 -4 12 -11 40 -15 62 l-6 40 24 -45 c14
-25 28 -53 32 -62 18 -49 23 3 8 103 -4 33 -2 54 10 77 22 42 28 40 25 -6 -2
-21 0 -43 5 -50 4 -6 3 -38 -3 -69 -11 -72 -14 -213 -4 -213 5 0 9 26 10 57 3
56 21 113 35 113 5 0 8 -11 8 -25 0 -14 5 -25 10 -25 6 0 10 -15 11 -32 1 -31
15 -89 19 -78 1 3 3 47 4 98 2 51 8 98 14 104 8 8 12 8 15 -3 2 -8 13 -54 25
-102 22 -92 69 -207 83 -207 12 0 11 27 0 34 -15 10 -68 167 -76 226 -7 55 -7
55 13 37 15 -13 24 -42 33 -102 13 -88 30 -109 24 -29 -3 38 -1 45 12 40 12
-5 14 -2 8 16 -16 53 -16 67 -1 94 l15 29 1 -42 c0 -30 4 -43 14 -43 9 0 13 8
10 22 -5 22 -4 22 8 4 7 -10 25 -32 39 -48 23 -26 28 -28 36 -14 7 13 13 3 27
-44 17 -56 31 -78 42 -68 2 3 -3 21 -11 41 -18 43 -20 86 -3 50 6 -13 15 -23
20 -23 11 0 10 1 -6 47 -15 42 -11 90 9 109 19 19 31 3 39 -50 3 -27 8 -52 11
-54 12 -12 13 7 6 61 -5 40 -4 56 3 54 6 -2 10 -16 9 -31 -1 -17 2 -26 10 -23
16 5 57 -33 57 -54 0 -10 4 -20 9 -23 5 -3 7 40 5 97 -2 56 -1 96 2 89 3 -6
10 -9 15 -6 6 3 7 -5 3 -19 -3 -14 -2 -36 2 -49 6 -21 7 -22 14 -4 11 31 54
-66 46 -105 -3 -16 -1 -29 4 -29 6 0 10 10 10 23 1 12 7 35 14 52 l12 30 12
-47 c7 -25 18 -52 25 -60 7 -7 19 -34 26 -60 14 -50 38 -69 26 -20 -8 31 -25
132 -25 147 0 18 43 15 56 -3 8 -9 14 -28 14 -40 0 -35 25 -21 26 14 2 74 4
85 16 78 6 -4 17 1 25 11 12 17 13 14 13 -26 0 -24 5 -51 10 -59 8 -12 10 -10
10 9 0 19 3 21 14 12 11 -10 13 -4 11 34 -2 25 1 45 6 45 5 0 9 9 9 21 0 11 5
17 10 14 6 -3 10 -15 10 -27 0 -15 5 -19 20 -15 18 5 20 0 20 -39 0 -24 5 -44
11 -44 9 0 7 -16 -8 -58 -3 -6 0 -12 5 -12 6 0 14 9 17 21 7 20 8 19 27 -11
20 -33 37 -36 20 -3 -11 20 -4 113 8 113 4 0 12 -24 18 -54 12 -58 39 -132 47
-125 2 3 -3 25 -12 49 -8 25 -17 77 -20 115 l-4 70 21 -40 c24 -46 47 -72 56
-63 3 4 1 16 -6 27 -8 16 -8 27 2 43 11 22 12 21 24 -20 7 -24 16 -70 20 -103
7 -63 24 -91 24 -40 0 16 5 31 11 33 7 2 7 12 1 29 -6 15 -7 43 -1 70 4 24 9
49 9 54 0 6 8 -3 16 -18 15 -28 34 -29 34 -1 0 8 5 14 10 14 6 0 10 -11 10
-24 0 -14 5 -28 10 -31 6 -3 10 -35 10 -71 0 -35 4 -64 9 -64 6 0 7 -16 4 -35
-3 -21 -2 -35 5 -35 6 0 13 18 17 40 9 52 31 52 46 0 13 -42 29 -54 29 -21 0
22 49 172 60 185 8 8 14 -5 25 -64 10 -50 36 -111 45 -105 4 2 -1 29 -12 60
-24 73 -35 151 -20 141 7 -4 12 -18 12 -32 0 -38 31 -27 45 16 l12 35 14 -44
c9 -25 20 -46 26 -48 6 -2 2 20 -8 49 -21 62 -23 84 -8 94 8 4 9 0 4 -15 -4
-12 -2 -21 4 -21 6 0 12 6 12 13 2 15 14 -60 28 -170 16 -132 29 -133 24 -2
l-4 114 20 -35 c11 -19 20 -43 21 -52 0 -25 15 -22 27 5 17 37 78 104 91 99 6
-2 13 1 13 7 3 26 4 30 13 38 8 7 6 -6 -12 -87 -5 -22 -3 -23 10 -12 13 10 17
10 21 0 3 -7 6 -1 6 15 1 31 8 34 28 10 13 -17 14 -16 8 7 -16 65 -16 95 0
115 15 19 16 18 12 -27 -3 -27 -1 -48 2 -48 4 0 16 -35 26 -77 19 -82 43 -143
57 -143 10 0 11 -3 -13 60 -12 30 -22 69 -24 85 -2 17 -6 51 -10 76 -5 33 -4
49 5 54 10 6 11 1 6 -19 -7 -29 8 -36 19 -8 6 15 9 13 30 -12 l23 -29 12 72
c6 39 15 73 20 76 16 10 20 -57 5 -86 -9 -16 -11 -29 -6 -29 5 0 12 6 14 13 3
6 6 -29 6 -80 1 -50 6 -95 11 -98 7 -4 9 17 6 59 -3 46 0 69 9 74 6 4 15 29
19 57 3 27 10 53 15 58 5 5 7 16 4 23 -3 8 0 14 7 14 9 0 11 -16 7 -60 -5 -62
2 -76 21 -37 8 17 11 18 11 5 1 -10 8 -18 17 -18 10 0 14 5 10 16 -3 8 -2 12
4 9 6 -4 7 5 4 23 -3 16 -2 32 4 35 5 4 7 -4 4 -18 -2 -15 0 -25 7 -25 6 0 11
-17 11 -40 0 -28 4 -40 14 -40 8 0 17 -10 21 -22 12 -43 38 -98 47 -98 4 0 8
20 8 45 0 25 5 45 10 45 6 0 10 14 10 30 0 17 4 30 10 30 5 0 12 11 16 25 3
13 13 30 22 37 13 12 15 8 10 -34 -5 -45 3 -63 16 -35 4 6 4 -5 2 -25 -3 -21
-1 -40 4 -43 4 -3 11 -23 15 -45 4 -22 11 -42 16 -46 11 -7 11 0 -2 71 -11 58
-5 125 10 125 5 0 11 -19 15 -41 13 -83 48 -107 61 -43 l6 37 23 -38 c13 -21
26 -33 29 -28 3 5 -2 23 -13 40 -23 39 -29 75 -12 80 8 3 12 -7 12 -31 0 -20
4 -36 8 -36 5 0 17 -18 27 -40 10 -22 22 -37 26 -34 5 3 3 17 -5 32 -25 50
-29 91 -11 128 9 20 18 34 20 32 8 -9 45 -171 45 -198 0 -16 5 -30 10 -30 6 0
10 15 10 34 0 48 9 66 27 59 11 -4 14 -2 9 5 -4 7 -2 12 3 12 6 0 11 20 11 45
0 25 5 45 10 45 6 0 10 -7 10 -16 0 -8 5 -12 10 -9 6 3 10 21 10 39 0 18 3 36
7 39 13 14 51 -43 57 -87 4 -25 11 -46 16 -46 5 0 6 16 3 35 -7 45 3 45 21 0
23 -55 39 -44 30 21 -5 41 -4 55 5 50 6 -4 11 -25 11 -47 0 -21 4 -39 9 -39 6
0 7 16 4 37 -4 24 -3 34 5 29 5 -3 13 0 15 6 3 7 6 1 6 -14 1 -16 6 -28 11
-28 6 0 10 12 11 28 0 15 3 21 6 15 11 -28 21 -11 11 18 -6 16 -9 31 -7 33 2
1 16 9 30 18 l27 17 6 -40 c3 -21 11 -38 18 -36 6 1 16 -19 23 -45 16 -58 54
-138 66 -138 12 0 13 -1 -21 73 -34 75 -36 87 -16 87 8 0 17 -13 21 -29 3 -16
14 -36 23 -43 14 -11 15 -11 8 7 -20 47 -56 167 -56 183 0 9 5 24 10 32 9 13
11 13 20 0 8 -12 13 -13 29 -3 18 12 20 9 26 -32 4 -24 4 -48 0 -54 -3 -6 -2
-11 4 -11 5 0 12 10 14 22 3 17 5 14 6 -9 2 -51 21 -39 22 15 1 29 4 36 6 20
6 -36 23 -36 23 -1 0 34 10 24 19 -18 4 -18 12 -34 18 -36 8 -3 8 8 2 39 -6
23 -7 60 -4 81 6 35 8 37 22 20 14 -17 14 -17 10 4 -3 15 0 23 8 23 8 0 16 8
18 18 4 16 5 16 6 0 0 -10 6 -18 11 -18 6 0 10 -28 10 -65 0 -37 4 -65 10 -65
6 0 10 20 10 45 0 25 4 45 10 45 6 0 7 19 4 47 -4 40 -3 45 7 29 6 -10 17 -40
24 -66 15 -57 34 -95 35 -68 0 9 -4 27 -9 40 -16 43 -23 100 -12 93 6 -3 11
-21 12 -38 1 -32 26 -111 29 -92 1 6 1 25 0 43 -1 18 2 47 5 64 l7 32 20 -35
c15 -27 18 -29 13 -9 -3 14 -8 37 -11 51 -4 16 1 38 10 55 l17 29 -5 -45 c-3
-25 -3 -36 0 -25 14 48 21 42 63 -59 29 -67 38 -51 13 21 -36 104 -44 142 -33
161 9 14 11 11 12 -18 1 -28 3 -30 6 -10 7 39 23 48 23 13 0 -18 6 -33 15 -37
8 -3 15 -12 15 -21 0 -8 4 -15 8 -15 4 0 5 25 2 55 -4 37 -3 54 4 52 6 -2 14
-29 17 -60 8 -70 28 -145 42 -154 6 -4 8 3 3 18 -32 113 -43 203 -26 229 7 11
10 2 10 -32 0 -34 4 -48 14 -48 8 0 16 -7 20 -15 3 -8 9 -15 14 -15 5 0 1 24
-9 52 -9 29 -15 57 -11 63 3 5 9 -5 13 -23 4 -18 13 -41 22 -50 8 -9 18 -33
22 -52 12 -61 26 -100 35 -95 5 3 5 16 0 30 -5 13 -11 55 -14 93 -5 53 -3 71
7 75 8 3 14 23 15 48 2 46 22 82 22 39 0 -13 3 -20 7 -16 4 4 7 38 6 74 l-2
67 12 -47 c17 -65 31 -73 25 -15 -8 68 11 55 32 -21 18 -65 26 -80 36 -69 3 3
-1 27 -9 54 -22 66 -32 134 -17 110 6 -9 17 -17 25 -17 8 0 17 -15 21 -35 3
-19 10 -32 15 -29 5 3 7 21 3 40 -8 42 4 144 17 144 5 0 9 -13 9 -28 0 -29 38
-151 59 -191 7 -11 16 -21 21 -21 9 0 4 20 -25 99 -24 67 -35 135 -26 167 7
28 8 27 15 -17 4 -26 14 -55 22 -65 15 -18 15 -18 9 1 -32 98 -41 160 -26 184
6 9 15 -6 30 -50 22 -66 46 -107 57 -97 3 4 -1 17 -10 30 -21 32 -56 136 -55
162 0 13 6 5 16 -21 8 -24 19 -43 23 -43 5 0 2 16 -6 35 -16 40 -19 79 -4 70
7 -4 9 3 4 22 -6 27 -6 28 10 7 8 -12 20 -43 26 -70 15 -69 40 -134 52 -134 6
0 7 8 3 18 -16 43 -44 162 -50 214 -5 49 -3 60 14 77 39 39 57 43 75 15 9 -13
21 -22 27 -18 6 4 6 11 -2 20 -6 7 -9 21 -5 29 3 9 0 15 -9 15 -8 0 -14 3 -13
8 1 4 -4 20 -11 36 -14 35 -5 49 15 22 13 -18 19 -15 14 9 -1 5 7 15 17 23 17
13 16 14 -5 7 -19 -5 -25 -1 -38 30 -12 29 -12 40 -3 51 10 12 9 13 -5 8 -10
-4 -16 -1 -16 9 0 9 -2 22 -5 29 -4 9 7 21 27 31 24 13 27 16 10 13 -34 -7
-22 15 24 42 37 21 37 22 9 17 l-30 -6 35 31 c22 20 28 28 15 24 -18 -6 -17
-4 5 22 14 15 32 34 40 41 13 11 13 12 -3 13 -10 0 -28 -5 -39 -11 -19 -10
-20 -9 -16 9 3 12 1 23 -6 25 -8 3 -7 8 2 19 10 13 10 17 0 21 -9 4 2 20 31
48 24 23 37 39 28 36 -9 -3 -18 1 -21 9 -12 31 -5 56 22 79 26 23 26 24 3 18
l-23 -6 18 28 19 28 -29 -18 -29 -19 8 24 c4 14 29 46 55 73 27 26 44 47 40
47 -5 0 -15 -7 -24 -15 -47 -48 -34 24 15 76 35 37 35 39 7 31 -16 -4 -19 -2
-12 9 11 18 14 39 6 39 -4 -1 -18 -7 -32 -15 -32 -18 -40 -18 -40 -1 0 8 19
26 43 40 47 29 43 34 -9 10 -49 -24 -51 -13 -4 30 l40 36 -36 -5 c-36 -4 -36
-4 -19 15 10 11 26 22 36 25 11 4 17 10 14 15 -3 4 2 11 11 14 29 11 9 16 -25
6 l-33 -9 18 22 c10 12 39 44 64 71 36 39 39 45 15 29 -16 -12 -39 -31 -50
-43 -11 -12 -28 -26 -39 -32 -16 -9 -18 -8 -11 8 4 11 7 29 7 41 -1 13 11 32
31 49 17 15 32 30 32 33 0 3 4 13 9 21 10 16 -39 -24 -61 -50 -11 -13 -12 -12
-10 5 3 27 56 95 73 95 8 0 13 4 11 9 -3 13 74 81 93 82 9 0 10 2 3 5 -6 3
-33 -10 -60 -28 -53 -37 -93 -48 -93 -25 0 14 40 37 66 37 8 0 12 5 9 10 -4 6
-15 8 -26 5 -52 -17 13 65 79 99 17 9 32 19 32 22 0 6 -58 -24 -93 -48 -41
-29 -45 -14 -9 37 18 25 32 48 32 52 0 4 6 14 13 23 6 9 2 6 -9 -6 -28 -29
-101 -66 -108 -55 -8 12 4 44 21 54 18 11 16 27 -3 27 -12 0 -11 6 7 33 16 22
18 28 6 18 -31 -25 -28 -5 4 23 33 30 33 44 0 26 -12 -6 -21 -7 -21 -3 1 12
34 49 50 56 11 4 11 6 2 6 -8 1 -2 15 17 38 17 20 29 38 27 40 -1 2 -17 -4
-35 -13 -42 -21 -62 -12 -59 26 1 16 2 30 3 30 0 0 25 9 55 20 l55 20 -58 -3
c-55 -2 -58 -1 -54 20 2 12 0 20 -4 17 -12 -7 -11 7 1 26 9 13 11 13 20 0 8
-13 10 -13 10 2 0 10 14 21 36 28 19 7 33 14 30 17 -3 3 -19 0 -36 -5 -38 -14
-31 2 12 24 16 8 28 18 25 20 -3 3 -18 -1 -34 -9 -57 -29 -76 -27 -23 3 30 17
46 28 35 24 -49 -16 -55 -16 -55 -1 0 8 10 22 23 31 l22 17 -25 -6 c-22 -5
-23 -4 -7 5 10 7 25 9 32 6 8 -3 17 -1 20 4 4 6 -9 10 -30 10 -32 0 -35 2 -26
18 6 10 32 29 60 43 63 29 59 38 -5 10 -53 -24 -64 -22 -37 6 10 11 19 26 21
34 2 8 13 24 24 37 23 24 18 28 -13 12 -31 -17 -22 5 16 39 33 29 47 50 24 35
-21 -13 -129 -42 -129 -35 0 16 127 106 180 128 30 12 46 23 35 23 -25 0 -134
-31 -202 -59 -58 -23 -68 -14 -27 24 15 14 23 25 19 25 -5 0 2 11 15 25 34 36
12 31 -27 -7 -18 -18 -33 -27 -33 -20 0 7 5 12 10 12 6 0 10 6 10 14 0 22 41
67 89 97 25 16 42 29 38 29 -13 0 -97 -42 -103 -51 -3 -5 -10 -9 -15 -9 -6 0
-7 6 -3 13 5 8 2 8 -9 -2 -33 -26 -17 4 26 48 40 43 30 41 -22 -4 l-24 -20 7
35 c3 19 11 37 16 38 6 2 10 9 10 16 0 7 30 22 68 34 70 21 68 27 -5 13 -32
-6 -43 -5 -47 6 -5 13 46 53 68 53 5 0 7 2 4 5 -3 3 -22 -2 -42 -11 -39 -19
-56 -14 -36 11 11 13 10 14 -4 9 -12 -5 -16 0 -16 19 0 14 7 28 16 31 8 3 12
11 8 17 -4 7 -3 9 3 6 6 -4 27 3 49 13 21 11 32 20 25 20 -7 0 -21 -5 -33 -11
-11 -6 -33 -12 -50 -14 -39 -5 -32 18 8 26 27 6 27 7 4 8 -25 2 -25 2 -5 17
19 15 19 15 -8 8 -28 -6 -28 -6 -25 36 2 36 7 46 33 61 32 20 28 26 -6 9 -30
-17 -23 5 12 35 l32 26 -28 -7 c-15 -4 -36 -15 -46 -25 -11 -11 -25 -19 -31
-19 -8 1 -6 6 5 14 15 12 16 14 2 20 -27 10 -17 45 18 60 l32 15 -34 -6 c-31
-6 -34 -4 -27 13 4 10 9 25 10 32 1 8 9 18 17 23 10 6 10 9 2 9 -23 0 -14 30
12 42 13 6 22 15 19 20 -3 4 -10 5 -16 2 -6 -4 -8 1 -3 16 5 17 4 21 -6 15 -8
-4 2 7 21 24 39 35 15 27 -39 -13 -45 -34 -57 -33 -33 2 30 43 36 56 25 49 -6
-4 -13 4 -16 18 -3 20 3 32 27 51 l31 26 -37 -22 c-32 -18 -38 -19 -38 -6 0 9
16 24 36 34 33 17 35 19 15 25 -14 3 -19 1 -15 -6 5 -8 3 -8 -6 0 -11 10 -11
15 1 30 13 17 13 17 -13 0 -16 -10 -28 -13 -28 -7 0 12 82 50 107 50 9 0 14 3
10 6 -3 4 -27 1 -53 -5 -53 -13 -78 -2 -47 20 10 8 24 25 32 39 13 23 13 24
-2 11 -19 -15 -19 -15 -22 17 -2 22 33 57 90 91 18 10 16 10 -10 5 -16 -4 -39
-15 -51 -25 -11 -11 -24 -19 -30 -19 -5 0 0 7 10 15 11 8 16 15 12 15 -5 0 -3
6 3 14 9 11 6 12 -16 8 -37 -6 -22 8 30 31 41 17 31 18 -40 0 -29 -7 -25 18 7
49 51 48 70 60 127 84 44 19 49 24 23 19 -19 -4 -47 -8 -61 -9 -14 -2 -47 -17
-72 -34 -28 -19 -49 -27 -53 -21 -3 6 -2 15 4 21 6 6 8 17 5 26 -5 10 -2 13 6
8 9 -6 11 1 5 28 -5 29 -2 42 12 58 13 14 15 22 7 25 -8 3 -9 12 -3 28 9 23 8
24 -15 15 -29 -11 -32 -4 -7 23 14 17 15 19 1 15 -29 -11 -16 22 23 57 40 36
35 47 -8 19 -13 -9 -27 -14 -31 -11 -12 13 7 53 34 70 l28 18 -32 -4 c-35 -4
-40 2 -21 21 7 7 9 12 5 12 -11 0 19 54 37 69 24 20 19 32 -10 21 -36 -14 -77
-13 -72 3 3 6 27 24 54 39 54 30 53 36 -3 13 -31 -13 -34 -13 -23 0 7 8 9 15
5 15 -22 0 23 31 53 36 30 6 33 8 17 14 -11 4 -28 3 -38 -2 -27 -14 -31 -4
-12 29 16 28 9 20 -29 -32 -21 -29 -28 -14 -10 20 l15 30 -35 -34 c-20 -19
-36 -31 -36 -27 0 14 23 50 44 69 12 10 15 16 9 12 -24 -12 -13 9 25 49 l37
39 -39 -31 c-22 -17 -43 -29 -48 -26 -5 3 -13 -8 -19 -24 -11 -31 -33 -47 -51
-36 -5 3 -16 -2 -24 -12 -13 -18 -14 -18 -8 -1 4 10 21 28 39 40 18 12 32 27
31 32 0 6 13 17 31 25 18 8 35 20 37 27 3 7 -16 0 -42 -14 l-47 -26 25 28 c14
15 52 45 84 66 33 22 55 39 50 39 -18 0 -111 -59 -158 -101 -32 -28 -45 -36
-37 -21 16 31 1 28 -26 -5 -21 -27 -22 -27 -23 -6 0 24 37 56 54 46 6 -3 8 -3
4 2 -9 10 23 35 87 68 28 14 47 26 43 27 -12 0 -121 -50 -138 -64 -22 -19 -50
-27 -50 -14 0 22 72 78 151 117 45 23 75 41 67 41 -7 0 -48 -17 -91 -39 -42
-21 -86 -41 -97 -44 -18 -5 -17 -1 7 27 16 18 40 41 55 52 15 10 26 20 24 21
-4 4 -67 -27 -99 -50 -16 -10 -31 -17 -34 -13 -3 3 2 8 11 12 9 3 16 10 16 16
0 5 -4 6 -10 3 -5 -3 -10 -1 -10 5 0 7 6 10 13 7 7 -3 24 2 38 10 13 8 16 12
7 9 -52 -16 7 52 86 99 33 19 56 35 52 35 -12 0 -68 -30 -114 -62 -23 -16 -46
-27 -51 -23 -5 3 -13 0 -17 -6 -5 -8 -3 -9 6 -4 9 5 11 4 6 -3 -4 -7 -12 -12
-17 -12 -17 0 1 43 35 80 17 19 23 28 14 21 -10 -7 -18 -10 -18 -5 0 5 -11 -4
-25 -21 -22 -27 -24 -28 -25 -9 0 12 7 27 16 35 8 7 13 21 11 31 -3 10 0 18 6
18 6 0 7 3 4 7 -9 8 52 85 112 142 25 25 37 38 26 31 -11 -8 -41 -34 -67 -59
-26 -25 -51 -42 -54 -38 -4 4 -3 12 2 20 5 7 -2 1 -16 -14 -14 -14 -34 -30
-45 -34 -42 -15 -85 -23 -85 -14 0 5 4 9 9 9 5 0 17 12 26 28 l18 27 -22 -19
c-60 -54 -25 49 39 112 26 26 76 64 111 85 35 20 60 37 56 37 -15 0 -93 -43
-140 -77 -26 -20 -51 -33 -54 -30 -6 6 14 42 39 69 7 8 27 29 43 48 l30 34
-35 -25 c-19 -14 -70 -45 -113 -69 l-78 -42 22 37 c13 21 45 61 73 89 58 58
35 44 -38 -23 -28 -27 -46 -38 -42 -27 5 14 2 17 -11 12 -16 -5 -16 -5 -2 6 9
7 24 29 33 48 l18 35 -26 -30 c-27 -31 -36 -24 -12 10 7 11 26 42 41 69 l28
50 -30 -25 c-17 -13 -28 -29 -26 -35 2 -5 -5 -19 -17 -29 -16 -14 -20 -15 -20
-4 0 8 5 20 12 27 8 8 8 12 1 12 -13 0 -1 64 17 85 18 22 7 19 -77 -20 -41
-20 -77 -34 -79 -32 -2 1 2 19 8 39 9 30 20 40 59 58 27 11 62 23 79 27 17 3
33 9 35 13 5 9 -71 -10 -117 -29 -16 -6 -28 -7 -28 -3 1 13 27 42 39 42 6 0
11 5 11 11 0 5 -5 7 -12 3 -8 -5 -9 -1 -5 12 6 17 5 17 -10 -2 -10 -12 -31
-24 -48 -28 l-30 -6 28 23 c16 12 56 37 90 54 41 22 54 33 40 33 -12 0 -25 -5
-28 -10 -4 -6 -25 -20 -48 -31 -23 -12 -65 -39 -93 -60 -27 -21 -60 -40 -72
-42 -12 -2 -28 -9 -34 -15 -22 -22 -29 -12 -13 18 9 17 22 30 30 30 8 0 15 4
15 8 0 11 69 49 132 73 42 15 45 18 18 13 -19 -3 -61 -19 -92 -35 -32 -17 -58
-27 -58 -23 0 4 -9 -1 -20 -11 -20 -18 -20 -18 -14 -1 4 10 25 27 48 37 l41
19 -35 -6 -35 -6 24 28 c14 16 47 51 75 78 48 46 49 47 11 21 -22 -15 -53 -40
-70 -55 -34 -30 -85 -54 -85 -40 0 5 12 16 28 25 22 13 23 15 5 10 -27 -7 -29
2 -7 35 9 14 2 9 -14 -10 -17 -19 -33 -32 -36 -29 -4 3 0 12 9 19 8 7 15 18
15 25 0 6 19 38 41 71 23 32 35 53 26 46 -8 -7 -32 -38 -53 -68 -23 -33 -54
-64 -76 -75 l-38 -19 10 24 c5 13 6 27 3 30 -3 3 -2 11 4 18 5 7 15 26 22 43
l13 30 -22 -20 c-11 -10 -26 -30 -33 -44 -12 -24 -47 -39 -47 -20 0 6 11 21
25 34 13 14 21 25 17 25 -4 0 2 7 12 15 11 8 16 15 12 15 -5 0 -36 -22 -71
-50 -35 -27 -65 -50 -68 -50 -3 0 -4 8 -2 18 2 9 4 17 5 17 1 0 3 10 4 23 2
12 20 41 41 62 59 61 32 48 -36 -17 l-59 -56 14 40 c8 22 24 60 36 84 l22 44
-24 -27 c-13 -14 -34 -29 -48 -33 l-25 -7 25 28 c24 28 23 28 -10 -2 -35 -31
-94 -66 -101 -60 -2 2 -13 -5 -23 -15 -12 -12 -15 -19 -7 -19 7 0 19 7 27 15
9 8 21 15 27 15 15 0 -65 -79 -80 -80 -18 0 -16 27 2 34 8 3 12 11 10 19 -9
22 50 92 95 114 22 12 37 24 31 27 -5 4 -32 -7 -59 -24 -63 -38 -73 -38 -36 2
l29 31 -50 -34 c-27 -19 -61 -44 -75 -56 -36 -33 -45 -28 -19 9 13 17 16 28 8
23 -7 -4 0 7 16 25 l30 33 -30 -19 c-16 -10 -38 -29 -48 -41 -10 -13 -25 -23
-33 -23 -8 0 -27 -7 -42 -16 -19 -11 -15 -5 13 21 41 38 21 34 -37 -7 l-27
-19 14 41 c8 23 29 59 46 81 17 21 28 39 25 39 -3 0 -27 -28 -52 -62 -40 -55
-88 -97 -99 -86 -2 2 7 25 19 51 l24 48 -25 -16 c-14 -9 -31 -14 -39 -11 -8 3
-14 1 -14 -4 0 -6 -7 -10 -15 -10 -8 0 -15 5 -15 10 0 6 -9 1 -20 -10 -32 -32
-41 -23 -18 18 l22 37 -30 -27 c-32 -30 -55 -38 -34 -13 7 8 9 15 4 15 -4 0 8
17 27 37 30 34 31 35 4 12 -63 -53 -71 -57 -45 -20 13 19 17 31 9 26 -7 -5
-22 -11 -33 -12 -10 -2 -26 -8 -35 -13 -12 -8 -8 -9 14 -4 l30 6 -30 -30 c-16
-16 -41 -33 -55 -37 l-25 -8 20 24 20 23 -30 -22 c-16 -12 -42 -31 -57 -43
-16 -11 -28 -17 -28 -12 0 13 38 47 80 72 55 33 23 25 -39 -10 l-56 -31 29 31
c17 17 25 31 18 31 -6 0 -14 -4 -17 -10 -3 -5 -16 -15 -28 -20 -15 -8 -13 -3
8 14 17 15 35 24 42 22 6 -3 23 4 37 15 13 11 44 29 68 40 33 15 36 19 14 14
-46 -10 -189 -77 -206 -96 -8 -9 -26 -22 -40 -29 l-25 -11 24 19 25 20 -26 -5
c-24 -4 -26 -2 -21 18 4 15 3 20 -5 15 -7 -4 -12 -14 -12 -22 0 -16 -35 -54
-50 -54 -17 0 -11 25 12 50 17 18 18 22 5 17 -22 -8 -22 2 1 20 9 8 11 11 3 7
-10 -5 -12 1 -7 27 3 19 3 28 0 22 -5 -12 -89 -73 -100 -73 -3 0 -2 4 1 10 4
6 -1 7 -11 3 -12 -4 -14 -8 -6 -11 15 -5 -30 -42 -50 -42 -7 0 -2 9 12 20 l25
20 -29 -10 c-25 -9 -27 -8 -21 7 4 10 11 32 15 49 l7 31 -71 -54 c-39 -29 -72
-49 -74 -43 -2 6 -17 4 -38 -5 -30 -12 -34 -12 -34 1 0 8 5 24 11 36 6 11 8
22 6 25 -3 3 -15 -13 -27 -36 -11 -23 -25 -41 -30 -41 -6 0 -4 13 5 30 21 40
19 47 -7 24 -21 -19 -21 -19 -14 1 17 42 17 59 0 30 -9 -16 -23 -38 -32 -47
-10 -12 -11 -18 -3 -18 7 0 9 -5 6 -11 -4 -6 -9 -8 -12 -5 -3 2 -18 -11 -35
-30 -17 -19 -34 -34 -38 -34 -13 0 -20 44 -8 55 8 7 9 4 4 -10 -6 -16 -1 -14
23 9 31 29 35 50 6 26 -21 -17 -19 -1 3 23 17 19 16 20 -6 8 -22 -12 -23 -11
-17 11 6 19 2 17 -24 -12 -16 -19 -30 -30 -31 -23 0 26 22 65 62 110 l43 47
-35 -24 c-19 -13 -42 -33 -50 -45 -8 -11 -32 -38 -53 -60 -32 -33 -37 -36 -32
-16 5 14 3 21 -3 17 -5 -3 -12 -19 -15 -35 -4 -17 -16 -35 -29 -42 -22 -12
-22 -11 -5 8 19 22 23 38 6 27 -7 -4 -6 2 2 17 11 22 11 23 -5 10 -14 -12 -16
-12 -11 1 3 8 28 27 55 43 59 34 59 45 1 15 -23 -11 -41 -18 -41 -16 0 4 -24
-16 -103 -86 -23 -20 -43 -36 -44 -34 -3 3 23 84 42 131 6 14 5 17 -3 10 -6
-5 -22 -43 -35 -83 -16 -48 -37 -86 -58 -108 -41 -42 -51 -27 -15 21 19 25 23
36 14 41 -8 5 -2 12 17 21 l30 13 -30 -2 c-16 -1 -36 -6 -43 -12 -7 -5 -16 -6
-20 -2 -7 7 5 19 59 59 l24 19 -27 -16 c-35 -20 -35 -12 -2 39 23 37 24 38 2
15 -13 -14 -31 -37 -40 -50 l-18 -25 10 28 c6 16 15 37 20 48 6 10 8 19 5 19
-7 0 -64 -118 -59 -123 6 -6 -85 -87 -97 -87 -19 0 -4 21 26 38 31 18 56 44
49 51 -2 3 -18 -9 -35 -25 -31 -29 -31 -29 -24 -4 6 19 -1 14 -26 -19 -19 -25
-41 -47 -49 -49 -9 -3 -5 6 10 22 21 23 22 26 5 20 -18 -7 -19 -6 -5 11 8 10
10 16 4 12 -20 -12 -13 45 13 103 26 59 22 60 -13 3 -13 -21 -24 -31 -24 -23
0 11 -4 9 -13 -5 -13 -22 -14 -26 -16 -55 0 -12 -19 -40 -41 -63 -38 -40 -48
-26 -12 16 8 9 12 17 7 17 -4 0 1 12 10 28 14 22 9 19 -25 -13 -26 -24 -38
-32 -32 -19 6 12 9 24 5 27 -3 4 -1 13 5 20 7 8 9 17 5 20 -3 4 -1 7 5 7 7 0
12 7 12 15 0 11 -4 13 -17 6 -10 -5 -34 -14 -53 -20 l-35 -11 30 28 c17 15 44
37 60 50 20 15 24 20 10 16 -17 -5 -16 -3 5 16 l25 21 -35 -17 c-19 -9 -50
-27 -67 -41 -18 -13 -33 -21 -33 -18 0 4 -12 -7 -26 -24 -14 -17 -31 -31 -36
-31 -6 0 -3 10 8 22 10 12 13 18 7 14 -20 -11 -15 5 10 32 20 22 20 24 2 14
-11 -6 -38 -33 -60 -60 -23 -28 -53 -53 -72 -59 l-31 -9 16 25 c16 25 16 25
-1 12 -9 -7 -17 -10 -17 -5 0 16 39 74 50 74 5 0 10 7 10 15 0 18 -82 -41
-142 -102 -21 -20 -40 -35 -42 -32 -13 13 18 81 55 119 22 23 32 37 22 32 -10
-6 -35 -29 -55 -52 l-38 -42 0 32 c0 22 6 33 23 40 17 7 18 9 5 9 -10 1 -18 4
-18 9 1 29 33 121 55 154 32 48 29 56 -6 17z m-3095 -84 c-8 -29 -26 -59 -42
-72 -39 -32 -47 -28 -21 10 l23 32 -26 -23 c-14 -12 -40 -24 -59 -26 -19 -1
-45 -8 -58 -15 -41 -22 -34 -4 8 21 23 14 39 27 36 30 -3 3 16 19 42 36 52 32
107 61 110 58 1 -1 -4 -24 -13 -51z m572 -70 c-12 -25 -26 -45 -33 -45 -6 0
-13 -3 -15 -7 -1 -5 -25 -23 -51 -41 -38 -25 -46 -28 -37 -12 6 11 18 20 27
20 9 0 13 3 10 7 -7 6 102 123 114 123 3 0 -4 -20 -15 -45z m706 -39 c-18 -24
-32 -48 -32 -53 0 -4 -7 -17 -15 -27 -12 -16 -15 -16 -15 -4 0 20 79 142 87
134 4 -3 -8 -26 -25 -50z m-422 29 c0 -8 -9 -19 -21 -25 -20 -11 -20 -11 -4
14 20 30 25 32 25 11z m2144 -8 c-8 -21 -71 -60 -83 -53 -5 4 -16 -2 -23 -11
-17 -23 -78 -66 -78 -56 0 26 123 126 165 135 25 5 27 4 19 -15z m-3698 -32
c-3 -13 -16 -29 -27 -35 -19 -11 -20 -10 -8 12 7 13 14 25 15 28 0 3 5 14 9
24 11 26 19 4 11 -29z m2864 41 c0 -6 -76 -56 -86 -56 -5 0 11 14 36 30 46 31
50 33 50 26z m-2965 -26 c-10 -11 -21 -17 -24 -14 -3 3 3 12 13 20 28 20 32
17 11 -6z m695 10 c0 -11 -61 -52 -68 -45 -7 7 19 45 28 40 5 -3 11 -1 15 5 8
13 25 13 25 0z m906 -12 c-9 -13 -19 -29 -22 -36 -11 -23 -65 -75 -57 -56 6
17 5 18 -12 4 -41 -33 4 28 51 69 53 46 64 51 40 19z m2664 18 c0 -2 -7 -7
-16 -10 -8 -3 -12 -2 -9 4 6 10 25 14 25 6z m-4216 -21 c-4 -8 -11 -15 -16
-15 -6 0 -5 6 2 15 7 8 14 15 16 15 2 0 1 -7 -2 -15z m766 11 c0 -3 -4 -8 -10
-11 -5 -3 -10 -1 -10 4 0 6 5 11 10 11 6 0 10 -2 10 -4z m383 -16 c-7 -24 -40
-50 -66 -50 -24 0 -10 25 29 50 38 24 43 24 37 0z m507 2 c0 -10 -7 -27 -15
-38 -13 -17 -13 -15 -3 19 12 41 18 47 18 19z m-1960 4 c0 -2 -8 -10 -17 -17
-16 -13 -17 -12 -4 4 13 16 21 21 21 13z m970 -11 c-7 -9 -15 -13 -17 -11 -7
7 7 26 19 26 6 0 6 -6 -2 -15z m956 -26 c-9 -22 -15 -27 -15 -16 -1 21 18 61
25 54 3 -3 -2 -20 -10 -38z m-1186 11 c-16 -11 -40 -13 -40 -5 0 8 44 24 50
18 2 -2 -2 -8 -10 -13z m124 5 c-6 -16 -94 -68 -94 -56 0 15 71 70 92 71 4 0
5 -7 2 -15z m421 -4 c-3 -6 -11 -11 -17 -11 -6 0 -6 6 2 15 14 17 26 13 15 -4z
m341 -22 c-9 -20 -15 -27 -16 -16 0 20 19 61 26 54 2 -2 -2 -19 -10 -38z m709
-16 c-9 -14 -12 -22 -6 -19 6 4 11 2 11 -3 0 -13 -3 -13 -24 -5 -13 5 -12 12
7 47 16 31 23 37 25 24 2 -10 -4 -30 -13 -44z m495 54 c0 -2 -13 -16 -30 -32
-33 -32 -42 -21 -10 13 18 19 40 29 40 19z m-1800 -20 c0 -7 -12 -30 -27 -52
-22 -31 -28 -36 -31 -22 -2 10 7 34 20 53 24 35 38 43 38 21z m2662 8 c20 -8
11 -59 -13 -81 -22 -20 -24 -9 -4 26 19 34 19 51 -2 43 -11 -4 -14 -3 -9 5 8
14 9 14 28 7z m384 -17 c-3 -13 -6 -29 -6 -35 0 -7 -7 -13 -16 -13 -13 0 -14
3 -4 15 6 8 9 23 5 35 -5 15 -2 20 10 20 13 0 16 -6 11 -22z m-3439 -14 c-21
-14 -41 -24 -43 -21 -6 5 57 47 71 47 5 0 -8 -12 -28 -26z m1256 4 c-3 -13
-12 -30 -19 -39 -8 -9 -12 -18 -9 -21 3 -2 -2 -5 -10 -5 -20 0 -19 6 10 50 30
43 35 46 28 15z m877 17 c0 -7 -52 -85 -56 -85 -2 0 -1 15 2 33 4 26 3 29 -6
15 -6 -10 -18 -18 -26 -18 -23 0 -7 18 34 40 38 20 52 24 52 15z m830 -46
c-25 -22 -47 -34 -49 -27 -2 6 -12 1 -22 -13 -10 -13 -19 -18 -19 -11 0 7 -4
10 -10 7 -5 -3 -10 -1 -10 4 0 6 7 11 15 11 8 0 15 4 15 10 0 11 113 70 120
63 3 -3 -15 -23 -40 -44z m430 43 c0 -10 -71 -45 -77 -38 -4 4 39 29 75 45 1
1 2 -3 2 -7z m1720 -7 c-7 -8 -17 -15 -22 -15 -5 0 -16 -7 -24 -15 -18 -17
-38 -20 -28 -4 7 13 65 49 78 49 5 0 3 -7 -4 -15z m-5975 -15 c-10 -11 -21
-17 -24 -14 -3 3 3 12 13 20 28 20 32 17 11 -6z m910 1 c-3 -6 -11 -11 -17
-11 -6 0 -6 6 2 15 14 17 26 13 15 -4z m555 -6 c-7 -8 -17 -15 -23 -15 -5 0
-2 9 8 20 21 23 35 19 15 -5z m1890 20 c0 -2 -10 -9 -22 -15 -22 -11 -22 -10
-4 4 21 17 26 19 26 11z m1095 -22 c-9 -16 -28 -41 -41 -58 l-25 -30 11 30
c10 26 56 85 67 85 2 0 -3 -12 -12 -27z m-4008 -10 c-9 -9 -20 -13 -24 -9 -4
4 1 14 11 22 25 18 35 8 13 -13z m1348 5 c-6 -19 -59 -78 -70 -78 -13 0 14 50
39 72 38 33 39 33 31 6z m2095 1 c-7 -11 -14 -18 -17 -15 -8 8 5 36 17 36 7 0
7 -6 0 -21z m1510 13 c0 -5 -7 -17 -15 -28 -14 -18 -14 -17 -4 9 12 27 19 34
19 19z m-6070 -17 c0 -8 -4 -15 -10 -15 -5 0 -10 7 -10 15 0 8 5 15 10 15 6 0
10 -7 10 -15z m-36 -8 c-3 -8 -27 -23 -55 -35 -57 -25 -59 -26 -59 -12 0 10
94 60 112 60 4 0 5 -6 2 -13z m666 1 c0 -7 -5 -20 -10 -28 -9 -13 -11 -13 -20
0 -6 9 -10 10 -10 3 0 -15 -48 -68 -56 -61 -3 3 5 16 18 28 13 13 17 20 11 16
-29 -16 -10 16 20 34 37 23 47 25 47 8z m1656 -3 c-11 -8 -22 -12 -25 -9 -6 6
19 24 34 24 6 -1 1 -7 -9 -15z m74 11 c0 -3 -4 -8 -10 -11 -5 -3 -10 -1 -10 4
0 6 5 11 10 11 6 0 10 -2 10 -4z m735 -15 c-3 -6 -11 -11 -17 -11 -6 0 -6 6 2
15 14 17 26 13 15 -4z m885 10 c0 -5 -7 -12 -16 -15 -14 -5 -15 -4 -4 9 14 17
20 19 20 6z m99 6 c-2 -1 -13 -9 -24 -17 -19 -14 -19 -14 -6 3 7 9 18 17 24
17 6 0 8 -1 6 -3z m829 -17 c-15 -23 -28 -26 -28 -6 0 8 8 17 18 19 9 3 18 5
20 6 1 0 -3 -8 -10 -19z m472 15 c0 -2 -13 -11 -30 -20 -38 -19 -40 -11 -2 9
31 17 32 18 32 11z m1096 -21 c-4 -9 -9 -15 -11 -12 -3 3 -3 13 1 22 4 9 9 15
11 12 3 -3 3 -13 -1 -22z m-4490 -10 c-4 -9 -9 -15 -11 -12 -3 3 -3 13 1 22 4
9 9 15 11 12 3 -3 3 -13 -1 -22z m334 -3 c-6 -12 -15 -21 -21 -21 -10 0 -5 13
14 38 15 19 20 7 7 -17z m700 25 c0 -3 -4 -8 -10 -11 -5 -3 -10 -1 -10 4 0 6
5 11 10 11 6 0 10 -2 10 -4z m1010 -5 c0 -9 -27 -41 -35 -41 -5 0 0 24 8 38 9
14 27 16 27 3z m1885 -43 l-17 -23 7 24 c6 18 4 22 -6 16 -8 -5 -5 2 6 14 16
19 21 20 23 7 2 -8 -4 -26 -13 -38z m508 35 c-8 -23 -32 -43 -52 -43 -11 0 -7
9 14 29 34 34 47 39 38 14z m217 10 c-1 -11 -50 -70 -50 -60 0 16 31 67 40 67
6 0 10 -3 10 -7z m-6594 -69 c-4 -13 -11 -24 -16 -24 -6 0 -6 9 0 25 6 14 10
27 10 30 0 28 3 36 7 16 3 -12 2 -34 -1 -47z m1404 63 c0 -2 -15 -14 -32 -27
l-33 -23 24 26 c21 23 41 35 41 24z m665 -6 c3 -5 1 -12 -5 -16 -5 -3 -10 1
-10 9 0 18 6 21 15 7z m859 -5 c-6 -16 -34 -30 -34 -18 0 5 5 13 12 20 16 16
29 15 22 -2z m473 -16 c-6 -16 -17 -30 -25 -30 -10 0 -10 5 -2 20 8 14 8 20 0
20 -6 0 -8 5 -5 10 3 6 15 10 25 10 16 0 17 -3 7 -30z m98 20 c-3 -5 -12 -10
-18 -10 -7 0 -6 4 3 10 19 12 23 12 15 0z m669 -14 c-10 -8 -21 -12 -24 -9 -3
2 4 11 14 19 11 7 22 12 25 9 2 -3 -4 -12 -15 -19z m646 3 c-7 -11 -17 -18
-25 -16 -7 3 -18 0 -24 -6 -6 -6 -11 -8 -11 -4 0 11 43 47 57 47 11 0 11 -5 3
-21z m528 4 c-9 -10 -13 -24 -11 -31 5 -14 -14 -42 -29 -42 -5 0 -3 10 4 23 7
12 11 26 10 31 -4 11 18 36 31 36 5 0 3 -8 -5 -17z m-4943 -23 c-10 -11 -20
-18 -23 -15 -3 3 3 14 13 25 10 11 20 18 23 15 3 -3 -3 -14 -13 -25z m459 15
c-4 -8 -11 -15 -16 -15 -6 0 -5 6 2 15 7 8 14 15 16 15 2 0 1 -7 -2 -15z
m3596 12 c0 -2 -10 -12 -22 -23 l-23 -19 19 23 c18 21 26 27 26 19z m90 -33
c-18 -21 -24 -10 -9 18 8 14 14 18 17 10 2 -7 -2 -19 -8 -28z m1970 21 c-7 -8
-17 -15 -23 -15 -6 0 -2 7 9 15 25 19 30 19 14 0z m-5345 -5 c-3 -5 -12 -10
-18 -10 -7 0 -6 4 3 10 19 12 23 12 15 0z m4125 -5 c-7 -8 -17 -15 -23 -15 -6
0 -2 7 9 15 25 19 30 19 14 0z m980 11 c0 -2 -7 -7 -16 -10 -8 -3 -12 -2 -9 4
6 10 25 14 25 6z m852 -28 c-12 -12 -24 -19 -28 -16 -3 4 4 16 16 28 12 12 24
19 28 16 3 -4 -4 -16 -16 -28z m-7222 13 c0 -5 -7 -12 -16 -15 -14 -5 -15 -4
-4 9 14 17 20 19 20 6z m2123 -6 c-3 -9 -8 -14 -10 -11 -3 3 -2 9 2 15 9 16
15 13 8 -4z m1437 -5 c-8 -5 -17 -7 -19 -4 -3 3 1 9 9 14 8 5 17 7 19 4 3 -3
-1 -9 -9 -14z m1022 -2 c-7 -7 -12 -8 -12 -2 0 14 12 26 19 19 2 -3 -1 -11 -7
-17z m1203 2 c-10 -11 -23 -20 -28 -20 -6 0 -2 9 8 20 10 11 23 20 28 20 6 0
2 -9 -8 -20z m1035 -15 c-7 -8 -16 -13 -20 -10 -5 3 -11 1 -15 -5 -3 -5 -12
-10 -18 -10 -7 0 4 15 22 32 34 30 57 25 31 -7z m180 20 c-33 -19 -50 -18 -26
0 11 8 27 15 35 15 10 -1 7 -6 -9 -15z m90 0 c-7 -8 -20 -15 -28 -15 -13 0
-12 3 4 15 25 19 40 19 24 0z m-7335 -17 c-7 -22 -48 -68 -61 -68 -3 0 -3 8 0
18 4 10 -2 7 -14 -8 -11 -14 -20 -21 -20 -16 0 5 -7 3 -15 -4 -8 -7 -15 -8
-15 -3 0 5 17 22 37 36 41 30 38 36 -5 11 l-27 -16 24 21 c15 14 31 19 46 15
13 -3 26 -1 29 5 4 6 1 11 -6 11 -9 0 -9 3 2 10 24 16 32 12 25 -12z m125 7
c0 -8 -13 -21 -30 -30 -38 -19 -39 -8 -2 22 33 27 32 27 32 8z m2620 11 c0 -3
-4 -8 -10 -11 -5 -3 -10 -1 -10 4 0 6 5 11 10 11 6 0 10 -2 10 -4z m1910 -11
c-7 -9 -15 -13 -19 -10 -3 3 1 10 9 15 21 14 24 12 10 -5z m794 0 c-4 -8 -11
-15 -16 -15 -6 0 -5 6 2 15 7 8 14 15 16 15 2 0 1 -7 -2 -15z m-5181 -15 c-3
-12 -8 -19 -11 -16 -5 6 5 36 12 36 2 0 2 -9 -1 -20z m28 -7 c-12 -20 -14 -14
-5 12 4 9 9 14 11 11 3 -2 0 -13 -6 -23z m2786 5 c-3 -8 -6 -5 -6 6 -1 11 2
17 5 13 3 -3 4 -12 1 -19z m3303 12 c0 -5 -5 -10 -11 -10 -5 0 -7 5 -4 10 3 6
8 10 11 10 2 0 4 -4 4 -10z m1010 6 c0 -2 -8 -10 -17 -17 -16 -13 -17 -12 -4
4 13 16 21 21 21 13z m-6340 -10 c0 -2 -7 -7 -16 -10 -8 -3 -12 -2 -9 4 6 10
25 14 25 6z m3705 -15 c-3 -6 -11 -11 -17 -11 -6 0 -6 6 2 15 14 17 26 13 15
-4z m1196 -14 c-13 -12 -20 -15 -16 -7 14 26 28 41 33 35 3 -3 -5 -16 -17 -28z
m739 23 c0 -5 -5 -10 -11 -10 -5 0 -7 5 -4 10 3 6 8 10 11 10 2 0 4 -4 4 -10z
m262 -22 c-12 -13 -22 -17 -22 -11 0 6 7 19 16 28 9 9 19 13 22 10 3 -3 -4
-15 -16 -27z m992 -27 c-9 -22 -22 -41 -29 -41 -7 0 -21 -3 -30 -7 -16 -6 -16
-4 0 20 18 28 9 36 -15 15 -8 -7 -6 -3 5 10 11 13 21 19 23 12 2 -6 15 1 29
16 32 34 38 26 17 -25z m-7719 12 c-3 -16 -13 -31 -20 -36 -8 -4 -12 -14 -9
-22 4 -8 2 -15 -4 -15 -15 0 -8 45 12 75 21 33 30 32 21 -2z m4696 4 c-10 -9
-11 -8 -5 6 3 10 9 15 12 12 3 -3 0 -11 -7 -18z m2712 -3 c-9 -15 -19 -21 -21
-15 -4 13 16 41 29 41 5 0 2 -12 -8 -26z m-7461 -6 c-7 -7 -12 -8 -12 -2 0 14
12 26 19 19 2 -3 -1 -11 -7 -17z m3190 0 c-7 -7 -12 -8 -12 -2 0 14 12 26 19
19 2 -3 -1 -11 -7 -17z m-3221 -15 c-8 -15 -10 -15 -11 -2 0 17 10 32 18 25 2
-3 -1 -13 -7 -23z m7049 24 c0 -2 -12 -14 -27 -28 l-28 -24 24 28 c23 25 31
32 31 24z m-6793 -29 c-3 -8 -6 -5 -6 6 -1 11 2 17 5 13 3 -3 4 -12 1 -19z
m7103 18 c0 -2 -7 -7 -16 -10 -8 -3 -12 -2 -9 4 6 10 25 14 25 6z m-7955 -16
c-3 -5 -11 -10 -16 -10 -6 0 -7 5 -4 10 3 6 11 10 16 10 6 0 7 -4 4 -10z
m1025 6 c0 -3 -4 -8 -10 -11 -5 -3 -10 -1 -10 4 0 6 5 11 10 11 6 0 10 -2 10
-4z m450 1 c0 -2 -10 -12 -22 -23 l-23 -19 19 23 c18 21 26 27 26 19z m-644
-33 c-4 -9 -9 -15 -11 -12 -3 3 -3 13 1 22 4 9 9 15 11 12 3 -3 3 -13 -1 -22z
m7369 -4 c-10 -11 -23 -20 -28 -20 -6 0 0 11 13 25 27 29 42 25 15 -5z m-6885
16 c0 -3 -4 -8 -10 -11 -5 -3 -10 -1 -10 4 0 6 5 11 10 11 6 0 10 -2 10 -4z
m-1327 -43 c-3 -21 -12 -45 -19 -53 -12 -12 -14 -11 -15 10 -1 23 -2 23 -15
-7 -8 -18 -21 -33 -30 -33 -8 0 -13 -4 -9 -9 3 -5 1 -12 -4 -16 -16 -9 -3 36
16 59 25 30 76 86 79 86 2 0 0 -17 -3 -37z m7997 23 c0 -3 -4 -8 -10 -11 -5
-3 -10 -1 -10 4 0 6 5 11 10 11 6 0 10 -2 10 -4z m-7840 -16 c0 -12 -109 -84
-117 -77 -3 3 9 13 26 22 18 9 29 20 26 24 -2 5 10 16 28 25 38 19 37 18 37 6z
m8217 -17 c-13 -14 -17 -14 -17 -3 0 10 -4 8 -13 -5 -9 -11 -16 -14 -20 -8 -8
13 19 37 32 29 5 -4 13 -1 16 5 4 5 10 8 13 4 3 -3 -2 -13 -11 -22z m-7797 3
c0 -2 -8 -10 -17 -17 -16 -13 -17 -12 -4 4 13 16 21 21 21 13z m7650 -21 c-7
-9 -15 -13 -17 -11 -7 7 7 26 19 26 6 0 6 -6 -2 -15z m-40 -3 c0 -5 -6 -16
-13 -26 -13 -18 -14 -18 -14 0 0 11 5 22 11 26 14 10 16 10 16 0z m93 -17 c-3
-9 -8 -14 -10 -11 -3 3 -2 9 2 15 9 16 15 13 8 -4z m-8543 -33 c0 -5 -7 -17
-15 -28 -14 -18 -14 -17 -4 9 12 27 19 34 19 19z m8892 1 c-6 -2 -10 -9 -7
-13 3 -5 0 -12 -6 -16 -8 -4 -9 -3 -5 4 4 7 1 12 -6 12 -9 0 -9 3 2 10 8 5 20
9 25 9 6 0 4 -3 -3 -6z m-45 -50 c-15 -16 -17 -16 -17 -1 0 9 6 18 13 21 20 7
22 -2 4 -20z m128 -7 c-9 -13 -23 -27 -32 -30 -13 -5 -14 -4 -3 9 7 8 9 15 4
15 -11 1 27 30 38 30 5 0 1 -11 -7 -24z m-9020 -41 c-9 -20 -18 -35 -21 -32
-3 2 3 21 12 41 23 47 29 40 9 -9z m8979 -20 c-4 -8 -11 -15 -16 -15 -6 0 -5
6 2 15 7 8 14 15 16 15 2 0 1 -7 -2 -15z m-9091 -77 c-10 -11 -26 -24 -35 -29
-31 -17 -22 26 15 67 l32 38 3 -28 c2 -17 -4 -36 -15 -48z m9293 55 c-9 -9
-86 -33 -86 -26 0 6 63 32 79 33 8 0 11 -3 7 -7z m-252 -37 c-3 -9 -10 -16
-15 -16 -6 0 -5 9 1 21 13 24 24 20 14 -5z m216 0 c-6 -8 -28 -25 -48 -36 -43
-25 -33 -13 18 24 41 29 46 31 30 12z m-9240 -30 c0 -3 -4 -8 -10 -11 -5 -3
-10 -1 -10 4 0 6 5 11 10 11 6 0 10 -2 10 -4z m9222 -38 c-7 -7 -12 -8 -12 -2
0 14 12 26 19 19 2 -3 -1 -11 -7 -17z m-9235 -8 c1 -11 -10 -28 -28 -40 -16
-12 -29 -17 -29 -11 0 6 4 11 9 11 5 0 12 7 15 16 5 14 4 15 -9 4 -10 -8 -15
-9 -15 -1 0 11 13 15 37 12 8 -1 10 5 7 14 -3 8 -2 15 3 15 5 0 9 -9 10 -20z
m-85 -12 c-7 -7 -12 -8 -12 -2 0 14 12 26 19 19 2 -3 -1 -11 -7 -17z m9463 -5
c-3 -8 -5 -21 -5 -28 0 -14 -59 -49 -68 -40 -3 3 3 14 13 25 10 11 16 22 13
25 -3 3 -11 -1 -18 -10 -14 -17 -30 -20 -30 -5 0 11 66 47 87 47 8 0 12 -6 8
-14z m-145 2 c0 -2 -10 -10 -22 -16 -21 -11 -22 -11 -9 4 13 16 31 23 31 12z
m-9314 -44 c-4 -5 -2 -11 3 -13 6 -1 -4 -19 -21 -38 l-30 -35 22 38 c12 20 19
37 15 37 -3 0 -3 5 0 10 3 6 8 10 11 10 3 0 3 -4 0 -9z m-116 -5 c0 -2 -8 -10
-17 -17 -16 -13 -17 -12 -4 4 13 16 21 21 21 13z m9563 -50 c-5 -26 -39 -63
-49 -53 -3 3 4 15 15 26 12 12 16 21 10 21 -8 0 -8 5 1 15 18 22 28 18 23 -9z
m-253 0 c0 -3 -4 -8 -10 -11 -5 -3 -10 -1 -10 4 0 6 5 11 10 11 6 0 10 -2 10
-4z m90 -10 c0 -3 -4 -8 -10 -11 -5 -3 -10 -1 -10 4 0 6 5 11 10 11 6 0 10 -2
10 -4z m278 -136 c-24 -33 -44 -41 -28 -10 8 16 36 38 48 40 1 0 -7 -13 -20
-30z m-9858 -174 c0 -3 -4 -8 -10 -11 -5 -3 -10 -1 -10 4 0 6 5 11 10 11 6 0
10 -2 10 -4z m9970 -21 c-7 -9 -15 -13 -18 -10 -3 2 1 11 8 20 7 9 15 13 18
10 3 -2 -1 -11 -8 -20z m-10045 -26 c-9 -17 -19 -29 -22 -26 -5 5 25 57 33 57
3 0 -3 -14 -11 -31z m121 -11 c-8 -18 -18 -42 -21 -53 -4 -11 -9 -15 -12 -8
-4 11 33 93 42 93 3 0 -2 -15 -9 -32z m9875 3 c-6 -11 -21 -26 -34 -32 -21
-12 -21 -11 -7 7 30 40 43 54 47 50 3 -2 0 -14 -6 -25z m-9971 -1 c-6 -11 -13
-20 -16 -20 -2 0 0 9 6 20 6 11 13 20 16 20 2 0 0 -9 -6 -20z m9910 0 c-14
-10 -27 -16 -30 -13 -6 6 30 33 44 33 6 0 0 -9 -14 -20z m-9884 -111 l-14 -34
-1 28 c-1 35 21 81 27 56 1 -9 -4 -32 -12 -50z m9889 46 c-31 -13 -41 -13 -32
2 3 5 18 9 34 10 l28 1 -30 -13z m16 -33 c-11 -21 -40 -36 -50 -26 -3 3 7 16
24 29 33 27 42 26 26 -3z m22 -97 c-3 -9 -8 -14 -10 -11 -3 3 -2 9 2 15 9 16
15 13 8 -4z m-21 -97 c-7 -7 -12 -8 -12 -2 0 14 12 26 19 19 2 -3 -1 -11 -7
-17z m46 -8 c-14 -22 -24 -19 -15 5 4 8 11 15 17 15 6 0 6 -7 -2 -20z m2 -84
c0 -8 -7 -16 -15 -20 -13 -4 -14 -2 -5 14 13 23 20 26 20 6z m0 -54 c0 -10
-22 -32 -32 -32 -5 0 -3 9 4 20 13 20 28 27 28 12z m-10069 -75 c-6 -14 -26
-47 -46 -73 -20 -26 -45 -65 -56 -86 -36 -71 -31 -32 6 46 47 99 126 192 96
113z m-8 -112 c-3 -9 -8 -14 -10 -11 -3 3 -2 9 2 15 9 16 15 13 8 -4z m27 -35
c-6 -11 -13 -20 -16 -20 -2 0 0 9 6 20 6 11 13 20 16 20 2 0 0 -9 -6 -20z
m10265 -42 c-35 -42 -55 -54 -55 -34 0 18 49 66 68 66 9 0 4 -12 -13 -32z
m-29 -164 c-3 -8 -10 -14 -15 -14 -10 0 -9 9 6 48 6 16 6 16 10 -1 3 -10 2
-25 -1 -33z m37 -132 c-6 -26 -25 -30 -21 -4 3 15 19 34 25 29 1 -2 0 -13 -4
-25z m-6103 -20 c0 -14 -39 -46 -48 -38 -4 4 2 14 12 22 19 14 19 14 -2 14
-26 0 -29 15 -5 28 17 10 43 -6 43 -26z m6070 8 c0 -5 -5 -10 -11 -10 -5 0 -7
5 -4 10 3 6 8 10 11 10 2 0 4 -4 4 -10z m-6060 -52 c0 -7 -16 -23 -35 -36 -42
-27 -45 -19 -8 20 29 30 43 35 43 16z m83 -54 c-10 -45 -6 -84 8 -84 5 0 9 19
10 43 0 23 4 51 8 62 7 18 10 17 30 -15 11 -19 26 -49 31 -67 6 -17 17 -34 25
-37 8 -3 15 -12 15 -19 0 -8 7 -20 15 -27 19 -16 19 -2 1 41 -24 59 -28 79
-16 79 6 0 16 -13 21 -30 15 -42 27 -37 24 10 -1 22 2 43 6 46 5 3 9 -8 9 -25
0 -36 9 -61 22 -61 5 0 6 15 2 34 -4 23 -1 42 9 56 13 19 15 16 21 -52 4 -40
9 -81 12 -90 9 -30 24 -20 24 15 0 17 5 39 10 47 9 13 11 13 20 0 5 -8 10 -32
10 -52 0 -21 5 -38 11 -38 6 0 10 15 9 33 -3 48 -1 54 12 32 7 -11 11 -37 9
-59 -2 -25 1 -36 8 -32 6 4 11 16 11 27 0 12 5 19 13 17 7 -3 15 -32 19 -70 9
-79 28 -140 46 -146 11 -3 12 0 3 16 -11 21 -42 184 -36 190 2 2 8 -5 14 -16
7 -14 17 -18 31 -15 15 4 20 0 20 -15 0 -11 6 -27 14 -34 12 -12 12 -18 0 -39
-19 -35 -18 -60 3 -34 15 19 15 19 10 -11 -4 -23 -1 -34 14 -44 10 -8 19 -20
19 -27 0 -7 5 -13 10 -13 6 0 10 20 10 45 0 33 4 45 15 45 7 0 18 8 24 17 5
10 13 14 17 10 4 -4 14 5 21 20 l13 28 -5 -32 c-5 -34 10 -56 18 -26 3 10 5
-12 6 -49 2 -98 21 -85 22 15 0 68 2 78 11 57 6 -14 10 -58 9 -97 -3 -80 12
-99 23 -31 l7 43 20 -44 c16 -37 21 -41 34 -31 22 18 18 5 -11 -41 -14 -23
-22 -44 -18 -47 4 -4 9 -1 11 6 3 7 16 25 29 40 l23 27 1 -37 c0 -21 5 -38 10
-38 6 0 10 15 10 34 0 19 5 47 10 61 9 23 12 25 25 11 8 -8 15 -24 15 -35 0
-11 5 -23 10 -26 6 -4 10 6 10 24 0 23 4 29 15 25 8 -4 15 -18 15 -33 -1 -68
27 -201 42 -201 6 0 7 8 3 18 -8 22 -25 110 -25 131 1 9 12 -3 26 -26 31 -51
44 -54 45 -10 1 30 1 31 9 7 4 -14 8 -40 9 -58 1 -36 20 -35 22 1 1 16 3 14
10 -10 5 -18 14 -33 19 -33 6 0 6 -10 0 -26 -13 -32 -13 -44 0 -44 6 0 10 4
10 9 0 17 45 111 53 111 4 0 7 -15 7 -34 0 -20 6 -36 14 -39 8 -3 22 -30 31
-59 24 -73 44 -110 55 -103 6 4 3 19 -6 37 -30 58 -45 111 -34 122 7 7 10 1
10 -17 0 -45 18 -30 27 21 l7 47 6 -39 c6 -49 23 -56 40 -16 22 52 22 26 1
-66 -26 -116 -32 -202 -12 -190 5 4 11 1 13 -6 9 -25 28 5 28 43 0 21 5 39 11
39 7 0 8 14 4 40 -6 33 -4 40 9 40 10 0 16 9 16 21 0 32 22 99 32 99 11 0 3
-87 -13 -151 -14 -54 -8 -69 17 -48 16 13 17 11 11 -13 -4 -14 -10 -33 -13
-42 -3 -9 -1 -16 5 -16 6 0 11 1 11 3 0 1 7 20 15 42 13 36 14 37 15 13 0 -16
4 -28 10 -28 5 0 17 -16 25 -37 20 -48 29 -37 14 21 -7 27 -8 61 -4 83 8 37 9
35 25 -45 9 -45 21 -87 28 -94 14 -14 15 -10 3 28 -5 16 -12 43 -16 59 -6 29
-6 29 12 12 15 -15 18 -34 18 -107 0 -48 3 -92 8 -96 4 -4 7 5 7 21 0 51 33
131 58 143 23 11 24 10 19 -21 -3 -18 -17 -69 -31 -115 -28 -92 -45 -212 -29
-212 6 0 13 26 17 58 8 71 45 224 57 237 6 5 9 4 9 -4 0 -8 7 -10 21 -6 21 7
21 5 15 -39 -5 -30 -4 -46 3 -46 6 0 11 7 11 15 0 8 6 12 14 9 11 -4 12 2 4
33 -8 28 -7 46 3 68 13 28 14 24 17 -65 2 -52 7 -99 12 -104 6 -6 8 15 4 55
-4 54 -2 68 15 89 l21 25 0 -27 c0 -15 -4 -30 -10 -33 -13 -8 -13 -35 0 -35 5
0 16 12 23 26 l14 27 7 -27 c3 -14 2 -36 -4 -47 -6 -11 -9 -28 -7 -37 3 -15 5
-14 12 3 23 63 39 89 43 73 2 -10 -8 -42 -21 -70 -33 -71 -49 -124 -45 -145 2
-10 14 14 26 52 27 86 44 116 35 63 -4 -25 -2 -38 6 -38 6 0 11 10 11 23 0 12
5 29 10 37 23 35 30 -14 24 -152 -5 -94 -3 -138 4 -138 6 0 8 21 5 59 -4 38
-2 61 6 65 6 4 11 29 11 56 0 27 5 52 11 56 8 5 10 -3 7 -25 -2 -17 -1 -31 4
-31 4 0 8 4 8 9 0 5 8 8 18 7 9 -2 20 4 23 12 4 10 11 -1 19 -30 12 -40 16
-44 26 -30 10 14 13 12 19 -16 3 -18 11 -32 15 -32 5 0 2 16 -6 35 -19 47 -19
72 1 55 8 -7 15 -23 15 -36 0 -13 4 -24 9 -24 4 0 12 -27 15 -61 7 -62 23
-116 31 -107 3 3 1 26 -4 52 -9 47 5 79 16 37 3 -12 10 -21 15 -21 6 0 7 8 3
18 -14 33 -35 117 -34 137 0 12 6 4 15 -20 24 -60 48 -105 56 -105 12 0 9 -40
-7 -94 -17 -57 -20 -100 -5 -91 6 3 10 16 10 28 0 12 7 40 16 64 15 39 18 41
33 26 13 -13 16 -40 17 -140 1 -69 5 -128 10 -133 6 -6 9 44 10 123 0 81 4
140 11 152 11 19 13 18 28 -17 20 -50 28 -48 20 3 -12 72 -12 117 0 112 20 -7
17 -150 -4 -208 -24 -67 -32 -113 -21 -120 6 -3 10 1 10 10 0 9 7 23 15 31 8
9 15 24 15 35 0 11 4 18 9 15 11 -7 20 -58 23 -133 4 -67 18 -57 18 13 0 30 5
54 10 54 6 0 10 21 10 48 0 53 13 85 23 58 4 -9 4 -23 1 -31 -4 -10 0 -15 15
-15 18 0 20 4 15 24 -3 14 -1 33 5 43 9 15 10 13 11 -14 0 -18 5 -33 11 -33 7
0 8 -7 4 -17 -9 -23 -23 -72 -40 -146 -8 -38 -23 -69 -41 -88 -28 -29 -48 -33
-24 -4 7 8 8 15 2 15 -10 0 -22 -22 -28 -49 -1 -8 -10 -21 -19 -30 -16 -15
-17 -14 -7 5 6 12 8 25 4 29 -4 5 -2 6 3 3 6 -4 10 8 11 25 1 31 1 31 -9 7
-26 -66 -62 -131 -65 -120 -3 7 -12 -2 -20 -21 -14 -31 -16 -32 -19 -11 -3 12
5 48 16 80 20 55 20 56 1 32 -11 -14 -20 -30 -20 -36 0 -14 -45 -56 -52 -48
-4 3 -26 -22 -49 -56 -24 -33 -45 -56 -47 -50 -9 26 107 167 182 222 21 15 36
28 32 28 -14 0 -70 -43 -130 -100 -33 -30 -56 -48 -52 -40 4 8 -1 4 -13 -10
-11 -14 -34 -56 -51 -95 -30 -68 -80 -125 -80 -91 0 24 45 121 81 173 18 27
25 41 14 33 -18 -15 -87 -116 -92 -135 -12 -47 -38 -105 -49 -109 -8 -3 -13
-2 -11 2 3 4 8 25 11 46 4 22 14 45 24 53 9 8 11 12 5 8 -7 -3 -13 0 -13 7 0
20 49 119 77 158 l26 35 -27 -25 c-15 -14 -48 -66 -73 -117 -24 -50 -51 -97
-60 -105 -14 -11 -15 -8 -8 32 4 25 14 65 21 90 7 24 12 46 10 48 -6 5 -25
-57 -40 -133 -14 -66 -18 -73 -78 -129 -35 -32 -52 -53 -38 -46 24 12 24 11
-4 -19 -31 -32 -61 -45 -33 -13 10 10 14 22 10 25 -3 4 0 15 8 25 8 10 -3 0
-24 -22 -21 -23 -52 -60 -69 -84 -16 -24 -32 -41 -34 -39 -12 12 13 95 42 139
32 47 32 48 6 26 -15 -12 -40 -51 -57 -86 -35 -74 -105 -159 -105 -128 0 11 8
29 18 40 16 20 16 20 0 7 -10 -7 -18 -11 -18 -7 0 9 48 85 84 131 17 22 23 34
15 27 -9 -7 -36 -39 -60 -73 l-44 -60 -3 31 c-2 18 1 45 7 62 14 40 5 50 -10
12 -6 -16 -17 -40 -24 -54 -7 -14 -18 -49 -25 -78 -6 -28 -16 -54 -21 -57 -4
-3 -5 -13 -2 -22 4 -11 3 -14 -5 -9 -7 4 -15 1 -18 -8 -3 -9 -10 -16 -15 -16
-9 0 7 48 44 133 14 31 24 57 22 57 -8 0 -71 -132 -85 -175 -16 -51 -40 -81
-52 -63 -6 10 -8 9 -8 -3 0 -16 -67 -75 -75 -67 -7 7 54 92 82 115 15 12 25
25 22 28 -3 3 -28 -15 -54 -40 -50 -46 -62 -54 -49 -32 5 7 1 7 -12 -3 -29
-22 -30 -24 -11 -17 23 9 22 5 -10 -24 -14 -13 -23 -18 -19 -12 4 7 9 22 11
34 6 32 65 148 96 187 8 10 -7 -5 -33 -32 -25 -28 -45 -53 -43 -55 2 -2 -12
-35 -32 -75 -40 -80 -98 -156 -119 -156 -8 0 -14 -5 -14 -12 0 -6 -3 -9 -6 -5
-10 10 7 48 18 41 7 -4 8 -2 4 4 -10 17 8 45 80 128 36 41 62 74 58 74 -9 0
-135 -114 -233 -210 -77 -76 -143 -175 -161 -241 -6 -21 -17 -40 -25 -43 -18
-7 -20 5 -2 23 10 10 7 10 -15 1 -18 -9 -25 -18 -21 -29 4 -9 3 -13 -2 -9 -4
4 -20 1 -36 -7 -36 -19 -43 -19 -35 1 4 9 -7 2 -23 -15 -31 -33 -46 -38 -54
-18 -3 7 -6 5 -6 -5 -1 -16 -70 -72 -79 -64 -4 4 16 118 25 144 3 9 3 14 -1
10 -4 -3 -14 -32 -23 -65 -16 -64 -50 -126 -63 -118 -5 3 -11 1 -15 -5 -15
-25 -24 -7 -10 23 8 17 10 23 3 12 -24 -37 -65 -70 -128 -105 -35 -19 -67 -34
-72 -32 -4 1 -8 -3 -8 -9 0 -5 -4 -7 -10 -4 -5 3 -10 1 -10 -5 0 -7 -27 -42
-61 -78 -62 -68 -93 -115 -87 -133 2 -6 20 14 41 43 20 30 50 67 67 83 l30 29
-6 -34 c-12 -67 -53 -111 -144 -157 -47 -23 -87 -43 -88 -43 -2 0 13 24 33 53
37 51 37 51 6 23 -40 -38 -40 -25 1 28 22 28 25 35 9 21 -12 -11 -39 -45 -58
-77 -20 -32 -40 -55 -44 -52 -5 3 -9 -3 -9 -13 0 -10 -5 -25 -10 -33 -7 -11
-9 5 -7 53 3 52 8 71 23 83 10 8 14 13 7 10 -19 -10 -25 12 -6 23 10 6 13 11
5 11 -8 0 -11 9 -7 28 5 24 4 24 -7 -5 -17 -43 -19 -44 -73 -49 l-47 -4 36 40
c20 22 36 43 36 46 0 7 -29 -13 -45 -31 -5 -7 -23 -14 -40 -18 l-30 -6 30 14
c20 10 24 14 12 15 -10 0 -16 4 -13 9 4 5 1 11 -6 13 -17 6 96 117 165 163 64
42 74 54 25 29 -38 -19 -99 -65 -145 -108 -37 -33 -47 -31 -37 8 4 17 20 34
43 46 39 21 38 26 -3 10 -34 -13 -33 2 2 32 38 32 54 57 21 35 -32 -23 -42
-21 -27 3 7 11 19 20 26 20 7 0 10 5 7 10 -4 6 -1 18 6 26 10 12 9 13 -5 8 -9
-3 -16 -12 -16 -19 0 -7 -10 -20 -22 -29 -79 -57 -93 -66 -105 -66 -20 0 -16
28 5 34 21 7 90 56 78 56 -4 0 -17 -5 -29 -11 -19 -9 -20 -8 -5 3 10 7 35 24
58 37 51 32 45 39 -10 11 -23 -12 -39 -16 -35 -10 5 9 1 10 -14 5 -37 -11 -23
5 22 25 23 11 36 20 29 20 -7 0 -10 5 -7 11 4 6 -11 1 -33 -10 -32 -16 -40
-18 -38 -6 3 22 76 89 122 114 62 32 30 24 -39 -10 l-62 -31 40 41 c21 23 45
41 52 41 7 0 13 4 13 9 0 4 18 21 40 36 57 40 42 42 -26 4 -33 -17 -79 -43
-104 -56 l-45 -24 40 36 c22 20 60 47 85 60 25 13 40 24 34 25 -6 0 -35 -13
-65 -30 -66 -36 -74 -37 -53 -5 10 16 26 25 43 26 24 1 24 1 -6 10 -36 10 -40
18 -20 38 10 10 9 11 -5 6 -13 -5 -18 -2 -18 8 0 18 52 61 94 77 16 6 26 13
23 16 -2 3 -21 -2 -41 -10 -50 -21 -34 1 18 25 22 10 30 16 16 13 -14 -3 -43
-14 -64 -25 -38 -17 -66 -17 -37 0 10 6 10 10 1 16 -13 8 22 33 75 53 l30 12
-30 -4 c-16 -2 -39 -7 -49 -11 -16 -7 -18 -5 -13 9 6 14 3 16 -15 10 -20 -6
-21 -5 -10 8 7 9 26 21 43 28 16 7 28 14 26 16 -2 3 -21 -3 -41 -11 l-37 -16
12 23 12 23 -26 -23 -25 -24 2 25 c0 14 4 23 7 21 3 -2 19 11 35 28 l29 30
-33 -17 c-45 -22 -53 -11 -11 14 19 12 30 21 24 21 -5 0 -2 5 9 11 14 9 20 8
27 -2 13 -22 20 -4 10 25 -10 24 -7 27 27 45 20 11 33 20 29 21 -4 0 -21 -7
-37 -15 -28 -15 -30 -14 -30 4 0 11 6 22 13 24 7 3 5 6 -5 6 -13 1 -17 9 -16
36 1 19 7 40 15 46 17 14 17 33 1 23 -7 -4 -9 -3 -5 1 4 5 13 10 20 11 7 1 30
12 52 24 41 23 38 23 -41 4 -19 -5 -25 -3 -20 5 10 15 -5 14 -26 -3 -10 -7
-14 -17 -10 -21 4 -5 1 -5 -6 -1 -7 4 -25 0 -40 -9 -17 -10 -12 -3 13 19 22
20 35 36 28 36 -6 0 -15 -5 -18 -10 -4 -6 -11 -8 -16 -4 -6 3 -4 11 6 18 9 6
17 24 19 39 1 15 9 33 16 40 12 10 12 9 1 -5 -19 -25 -8 -22 15 4 10 12 14 18
8 15 -7 -4 -15 0 -18 9 -6 16 42 70 109 122 l30 24 -30 -18 c-16 -10 -50 -34
-75 -54 -46 -38 -80 -55 -80 -41 0 11 29 35 65 54 38 20 25 22 -20 3 -19 -8
-35 -11 -35 -7 0 5 7 11 15 15 8 3 15 10 15 16 0 6 -11 3 -25 -6 -14 -9 -25
-12 -25 -6 0 6 8 15 18 21 9 5 16 13 14 17 -2 3 9 15 25 26 l28 20 -30 -6 -30
-6 25 20 c14 12 34 29 45 38 11 9 33 25 50 34 16 9 26 17 21 18 -12 0 -125
-58 -159 -82 -27 -19 -27 -19 -24 1 4 28 36 61 53 54 8 -3 14 1 14 11 0 9 7
19 15 22 8 4 12 10 9 15 -3 5 5 13 18 18 19 8 20 10 4 10 -16 1 -17 3 -5 18
10 12 4 10 -18 -5 -33 -23 -43 -27 -43 -14 0 11 65 53 107 68 21 7 29 13 18
13 -11 0 -38 -6 -60 -14 l-40 -14 30 26 c18 16 22 24 12 20 -38 -14 -67 -19
-67 -11 0 4 15 23 33 42 18 19 25 30 15 27 -25 -10 -22 10 5 29 l22 17 -22
-11 c-43 -20 -23 7 25 34 l47 27 -36 -7 -36 -6 -7 66 c-8 78 0 98 52 126 l37
20 -37 -6 c-36 -6 -48 3 -30 20 4 4 7 13 7 19 0 6 15 22 34 34 26 17 29 23 15
23 -11 0 -25 -9 -32 -20 -7 -11 -17 -20 -24 -20 -6 0 -3 10 8 22 10 12 13 18
7 14 -7 -4 -13 -3 -13 2 0 5 24 22 54 38 30 16 53 30 51 32 -2 2 -21 -6 -44
-17 -50 -26 -54 -26 -41 0 7 11 9 23 6 26 -3 4 -11 -8 -17 -25 -11 -31 -67
-82 -91 -82 -9 0 -9 3 2 10 13 9 13 10 0 10 -9 1 -3 11 18 29 39 34 42 50 5
26 l-28 -18 30 32 c24 25 26 31 10 25 -11 -4 -28 -14 -37 -22 -12 -10 -18 -11
-18 -3 0 13 65 81 115 120 18 15 22 21 10 16 -11 -4 -32 -12 -47 -18 -22 -9
-31 -8 -40 2 -11 11 -10 12 1 6 11 -6 13 -2 7 19 -5 19 -2 28 9 32 8 3 13 10
10 14 -3 4 2 14 11 21 9 7 20 24 25 37 5 13 19 26 30 29 15 4 17 8 8 14 -7 4
-23 1 -35 -8 -22 -14 -44 -11 -44 6 0 5 15 13 33 19 28 10 29 11 4 6 -17 -3
-26 -1 -23 5 4 5 -1 11 -9 13 -12 2 -8 12 17 43 18 22 22 31 10 21 -21 -18
-22 -18 -22 -1 0 10 7 26 16 36 15 16 14 17 -3 13 -15 -4 -19 1 -21 25 -2 27
3 32 60 60 69 35 65 42 -7 11 -26 -11 -49 -20 -52 -20 -3 0 -3 26 0 58 5 51
10 61 44 90 23 20 29 29 15 22 -27 -13 -42 -6 -24 12 21 21 13 27 -15 13 -33
-17 -45 -1 -17 20 13 10 15 14 5 15 -19 0 6 30 26 30 8 0 12 4 8 9 -3 6 3 15
12 21 17 10 16 10 -2 8 -13 -2 -19 2 -17 12 2 10 -4 7 -15 -7 -21 -25 -88 -43
-81 -22 3 8 19 24 36 36 20 13 27 23 20 26 -7 2 -28 -6 -47 -19 -19 -13 -37
-21 -40 -19 -2 3 -2 6 0 8 2 2 22 16 43 32 22 17 62 42 90 57 28 15 48 27 45
28 -13 0 -85 -33 -112 -52 -16 -11 -30 -18 -33 -16 -5 6 86 64 116 73 12 4 19
9 17 11 -3 3 -21 -2 -41 -10 -63 -26 -55 -4 24 68 26 24 33 27 41 15 8 -12 12
-11 22 4 16 24 20 3 10 -49z m-173 31 c0 -8 -7 -15 -16 -15 -14 0 -14 3 -4 15
7 8 14 15 16 15 2 0 4 -7 4 -15z m-4210 -89 c-29 -65 -33 -57 -7 15 12 34 23
55 25 46 2 -8 -6 -36 -18 -61z m4757 2 c-2 -13 -4 -5 -4 17 -1 22 1 32 4 23 2
-10 2 -28 0 -40z m-4686 -25 c-12 -20 -14 -14 -5 12 4 9 9 14 11 11 3 -2 0
-13 -6 -23z m4778 -70 c1 -7 -3 -13 -8 -13 -8 0 -32 77 -30 97 1 11 37 -69 38
-84z m5498 65 c-3 -8 -6 -5 -6 6 -1 11 2 17 5 13 3 -3 4 -12 1 -19z m-5438
-100 c1 -51 -15 -48 -22 3 -7 50 2 83 14 53 4 -10 8 -36 8 -56z m-4909 -14
c-7 -19 -6 -24 5 -24 22 0 18 -34 -6 -56 -12 -10 -39 -41 -60 -67 -27 -34 -39
-43 -39 -30 0 36 30 129 62 192 31 61 33 62 40 36 4 -15 3 -38 -2 -51z m5019
-1 c-5 -26 -16 -54 -24 -62 -13 -14 -15 -11 -15 18 0 31 27 91 41 91 3 0 2
-21 -2 -47z m-789 -18 c-7 -8 -18 -15 -24 -15 -6 0 -2 7 8 15 25 19 32 19 16
0z m6130 -30 c-7 -9 -15 -13 -17 -11 -7 7 7 26 19 26 6 0 6 -6 -2 -15z m-9960
1 c0 -3 -4 -8 -10 -11 -5 -3 -10 -1 -10 4 0 6 5 11 10 11 6 0 10 -2 10 -4z
m4750 -63 c-10 -16 -11 -15 -6 7 3 14 6 32 7 40 1 8 4 5 6 -7 2 -12 -1 -30 -7
-40z m102 15 c-8 -8 -9 -4 -5 13 4 13 8 18 11 10 2 -7 -1 -18 -6 -23z m-5238
-15 c-9 -16 -33 -41 -53 -58 -40 -33 -28 -12 28 48 42 44 48 47 25 10z m5191
5 c-4 -13 -9 -35 -12 -50 -3 -16 -9 -28 -13 -28 -7 0 -5 25 6 78 2 12 9 22 15
22 7 0 9 -9 4 -22z m-940 -7 c-3 -6 -11 -11 -17 -11 -6 0 -6 6 2 15 14 17 26
13 15 -4z m6125 4 c0 -8 -4 -15 -10 -15 -5 0 -7 7 -4 15 4 8 8 15 10 15 2 0 4
-7 4 -15z m-5463 -27 c-3 -8 -6 -5 -6 6 -1 11 2 17 5 13 3 -3 4 -12 1 -19z
m-676 -11 c-6 -8 -9 -16 -6 -18 2 -3 -5 -5 -15 -5 -24 0 -24 1 -4 20 19 20 41
22 25 3z m1170 -30 c-13 -13 -15 1 -4 30 7 17 8 17 11 -1 2 -10 -1 -23 -7 -29z
m4899 -2 c-7 -9 -15 -13 -19 -10 -3 3 1 10 9 15 21 14 24 12 10 -5z m-10286
-20 c-4 -8 -8 -15 -10 -15 -2 0 -4 7 -4 15 0 8 4 15 10 15 5 0 7 -7 4 -15z
m4137 -8 c-10 -9 -11 -8 -5 6 3 10 9 15 12 12 3 -3 0 -11 -7 -18z m65 -9 c-2
-18 -4 -43 -5 -54 0 -12 -7 -24 -15 -27 -15 -6 -21 49 -5 59 5 3 7 10 3 15 -5
9 12 39 22 39 2 0 2 -15 0 -32z m1004 28 c0 -3 -4 -8 -10 -11 -5 -3 -10 -1
-10 4 0 6 5 11 10 11 6 0 10 -2 10 -4z m-5230 -10 c0 -16 -24 -66 -32 -66 -6
0 -7 8 -3 18 4 9 10 25 12 35 4 14 23 25 23 13z m10352 -38 c-7 -7 -12 -8 -12
-2 0 14 12 26 19 19 2 -3 -1 -11 -7 -17z m-6189 -23 c-3 -9 -8 -14 -10 -11 -3
3 -2 9 2 15 9 16 15 13 8 -4z m1233 -20 c1 -14 -2 -25 -7 -25 -10 0 -12 33 -2
43 3 4 7 7 7 7 1 0 2 -11 2 -25z m119 -124 c-9 -49 -25 -25 -30 45 -3 38 -2
50 3 34 8 -24 9 -23 17 15 l10 40 3 -50 c2 -27 0 -65 -3 -84z m-5553 77 c-7
-7 -12 -8 -12 -2 0 14 12 26 19 19 2 -3 -1 -11 -7 -17z m5694 -4 c-4 -9 -9
-15 -11 -12 -3 3 -3 13 1 22 4 9 9 15 11 12 3 -3 3 -13 -1 -22z m4734 -45 c0
-9 -9 -24 -21 -35 -21 -19 -21 -19 -16 11 8 50 18 69 28 53 5 -7 9 -20 9 -29z
m-10476 -28 c-29 -44 -42 -55 -23 -18 22 40 42 68 46 63 3 -2 -8 -23 -23 -45z
m4336 -15 c0 -3 -4 -8 -10 -11 -5 -3 -10 -1 -10 4 0 6 5 11 10 11 6 0 10 -2
10 -4z m6180 -30 c0 -2 -8 -10 -17 -17 -16 -13 -17 -12 -4 4 13 16 21 21 21
13z m-10505 -61 c-8 -21 -18 -36 -21 -33 -3 3 2 23 11 43 8 21 18 36 21 33 3
-3 -2 -23 -11 -43z m4309 -10 c3 -9 -1 -18 -10 -22 -19 -7 -28 2 -21 22 8 19
23 19 31 0z m6161 -4 c-3 -6 -11 -11 -17 -11 -6 0 -6 6 2 15 14 17 26 13 15
-4z m-10470 -63 c-4 -18 -12 -37 -17 -43 -10 -10 -2 49 9 68 10 17 14 5 8 -25z
m5945 13 c0 -11 -4 -23 -10 -26 -6 -4 -10 5 -10 19 0 14 5 26 10 26 6 0 10 -9
10 -19z m135 -77 c-6 -45 -25 -52 -25 -9 0 29 23 82 28 66 2 -7 1 -32 -3 -57z
m-6113 29 c-3 -16 -7 -22 -10 -15 -4 13 4 42 11 42 2 0 2 -12 -1 -27z m6055
-5 c-3 -8 -6 -5 -6 6 -1 11 2 17 5 13 3 -3 4 -12 1 -19z m4428 -18 c-3 -5 -16
-15 -28 -21 -22 -12 -22 -12 -3 10 19 21 43 30 31 11z m-10452 -75 c6 -63 4
-81 -11 -103 -17 -26 -17 -26 -20 53 -2 44 0 90 3 102 11 44 22 22 28 -52z
m6127 45 c-6 -12 -14 -19 -17 -17 -2 3 1 15 7 27 6 12 14 19 17 17 2 -3 -1
-15 -7 -27z m111 -7 c-9 -16 -10 -14 -11 12 0 21 3 26 11 18 8 -8 8 -16 0 -30z
m-6190 -25 c-9 -20 -10 -18 -10 17 0 31 2 36 9 23 6 -10 7 -25 1 -40z m6306 0
c-3 -7 -5 -2 -5 12 0 14 2 19 5 13 2 -7 2 -19 0 -25z m4148 -18 c-3 -5 -11
-10 -16 -10 -6 0 -7 5 -4 10 3 6 11 10 16 10 6 0 7 -4 4 -10z m-4305 -16 c0
-8 -4 -12 -10 -9 -5 3 -10 10 -10 16 0 5 5 9 10 9 6 0 10 -7 10 -16z m4301
-31 c-8 -15 -10 -15 -11 -2 0 17 10 32 18 25 2 -3 -1 -13 -7 -23z m-4021 -73
c0 -5 -4 -10 -10 -10 -5 0 -10 5 -10 10 0 6 5 10 10 10 6 0 10 -4 10 -10z
m4000 -30 c0 -5 -5 -10 -11 -10 -5 0 -7 5 -4 10 3 6 8 10 11 10 2 0 4 -4 4
-10z m30 0 c0 -5 -5 -10 -11 -10 -5 0 -7 5 -4 10 3 6 8 10 11 10 2 0 4 -4 4
-10z m-4053 -32 c-3 -8 -6 -5 -6 6 -1 11 2 17 5 13 3 -3 4 -12 1 -19z m-2123
-2 c-3 -8 -13 -17 -22 -20 -9 -3 -24 -9 -32 -12 -8 -3 -2 6 13 20 31 29 49 34
41 12z m6171 4 c-10 -16 -65 -52 -65 -42 0 6 15 19 33 31 36 23 41 25 32 11z
m-10448 -62 c-3 -7 -5 -2 -5 12 0 14 2 19 5 13 2 -7 2 -19 0 -25z m4268 12
c-3 -5 -11 -10 -16 -10 -6 0 -7 5 -4 10 3 6 11 10 16 10 6 0 7 -4 4 -10z
m6176 -43 c-11 -12 -21 -16 -21 -10 0 6 6 18 13 25 8 7 12 20 10 28 -3 9 1 7
8 -4 9 -15 7 -22 -10 -39z m-10399 11 c-7 -7 -12 -8 -12 -2 0 14 12 26 19 19
2 -3 -1 -11 -7 -17z m-25 -20 c-3 -8 -6 -5 -6 6 -1 11 2 17 5 13 3 -3 4 -12 1
-19z m4225 -11 c-25 -27 -30 -46 -6 -26 14 12 15 8 9 -37 -10 -71 -14 -83 -37
-95 -18 -10 -19 -8 -13 13 4 12 13 33 21 46 9 14 10 22 4 22 -7 0 -9 8 -5 20
3 11 2 20 -3 20 -15 0 11 49 28 54 8 2 17 4 19 5 3 0 -5 -9 -17 -22z m-4252
-12 c0 -14 -4 -25 -10 -25 -5 0 -10 11 -10 25 0 14 5 25 10 25 6 0 10 -11 10
-25z m10490 5 c0 -5 -7 -10 -16 -10 -8 0 -12 5 -9 10 3 6 10 10 16 10 5 0 9
-4 9 -10z m-10423 -22 c-3 -8 -6 -5 -6 6 -1 11 2 17 5 13 3 -3 4 -12 1 -19z
m-36 -41 c-8 -8 -11 -5 -11 9 0 27 14 41 18 19 2 -9 -1 -22 -7 -28z m6665 28
c11 -27 -2 -37 -14 -11 -7 16 -8 26 -1 26 5 0 12 -7 15 -15z m-6715 -89 c-26
-25 -28 -7 -4 37 17 31 18 31 21 8 2 -14 -4 -32 -17 -45z m6770 3 c-10 -23
-10 -23 -10 7 -1 17 2 34 7 38 11 12 14 -18 3 -45z m-6712 -1 c-7 -13 -14 -18
-16 -11 -3 7 1 22 8 35 7 13 14 18 16 11 3 -7 -1 -22 -8 -35z m67 16 c-4 -9
-9 -15 -11 -12 -3 3 -3 13 1 22 4 9 9 15 11 12 3 -3 3 -13 -1 -22z m6671 -6
c-3 -8 -6 -5 -6 6 -1 11 2 17 5 13 3 -3 4 -12 1 -19z m3667 -15 c-7 -31 -22
-53 -34 -53 -5 0 -1 18 7 40 18 45 37 54 27 13z m-6170 2 c3 -8 1 -15 -4 -15
-6 0 -10 7 -10 15 0 8 2 15 4 15 2 0 6 -7 10 -15z m-4220 -41 c-12 -28 -18
-34 -21 -22 -4 15 27 71 35 63 2 -2 -5 -20 -14 -41z m6973 -31 c-3 -10 -5 -4
-5 12 0 17 2 24 5 18 2 -7 2 -21 0 -30z m-2767 -32 c0 -5 -7 -14 -15 -21 -12
-10 -15 -10 -15 2 0 8 3 18 7 21 9 10 23 9 23 -2z m2865 -73 c-9 -51 -15 -46
-15 13 1 41 3 50 11 37 5 -9 7 -32 4 -50z m-7125 12 c-6 -12 -14 -19 -17 -17
-2 3 1 15 7 27 6 12 14 19 17 17 2 -3 -1 -15 -7 -27z m7075 -6 c10 3 14 -10
17 -52 3 -48 0 -65 -25 -109 -16 -29 -33 -53 -39 -53 -5 0 -19 -10 -29 -22
l-20 -23 5 81 c6 84 25 156 33 122 3 -10 8 -18 13 -18 4 0 6 8 3 19 -3 10 0
22 6 25 6 4 12 22 12 39 1 25 3 27 6 9 3 -15 10 -22 18 -18z m-7009 -11 c-10
-10 -19 5 -10 18 6 11 8 11 12 0 2 -7 1 -15 -2 -18z m7188 0 c-10 -42 -21 -47
-16 -8 2 19 8 35 13 35 5 0 6 -12 3 -27z m3351 9 c-23 -20 -125 -73 -125 -64
0 5 26 23 58 40 55 31 86 41 67 24z m-10572 -39 c-4 -11 -8 -12 -13 -3 -5 8
-10 1 -15 -19 -7 -34 -25 -52 -25 -25 0 25 43 85 51 72 4 -6 5 -18 2 -25z
m7167 -37 c0 -8 -4 -18 -10 -21 -5 -3 -10 3 -10 14 0 12 5 21 10 21 6 0 10 -6
10 -14z m3358 -60 c-34 -35 -58 -46 -58 -26 0 6 8 10 18 11 14 0 14 2 -3 9
-18 7 -14 10 25 28 24 12 46 19 48 17 2 -2 -11 -20 -30 -39z m-3427 -9 c-8 -8
-11 -7 -11 4 0 9 3 19 7 23 4 4 9 2 11 -4 3 -7 -1 -17 -7 -23z m3439 -30 c0
-2 -12 -14 -26 -28 l-27 -24 18 28 c14 22 35 36 35 24z m-3620 -74 c0 -20 -10
-36 -34 -55 l-34 -27 3 25 c2 20 49 84 62 84 2 0 3 -12 3 -27z m3560 -18 c-7
-9 -15 -13 -18 -10 -3 2 1 11 8 20 7 9 15 13 18 10 3 -2 -1 -11 -8 -20z
m-10514 -40 c-9 -14 -21 -25 -26 -25 -18 0 -10 39 13 60 19 18 22 19 25 5 2
-9 -4 -27 -12 -40z m96 13 c-7 -7 -12 -8 -12 -2 0 14 12 26 19 19 2 -3 -1 -11
-7 -17z m-116 -93 c-7 -24 -15 -47 -19 -51 -11 -11 -8 55 3 77 19 34 27 20 16
-26z m119 -12 c-42 -63 -56 -93 -50 -103 3 -6 -3 -22 -14 -36 -12 -15 -21 -31
-21 -35 0 -11 22 -7 33 6 5 6 5 -3 2 -20 -4 -16 -13 -68 -20 -115 -11 -82 -12
-84 -20 -45 -11 55 -11 126 -1 149 7 14 6 17 -2 12 -19 -12 -14 40 8 90 11 24
24 44 29 44 5 0 20 18 35 40 14 22 29 40 32 40 4 0 -2 -12 -11 -27z m6624 -1
c-5 -15 -18 -33 -29 -40 -17 -10 -18 -9 -12 6 11 26 36 62 44 62 4 0 3 -12 -3
-28z m-6698 -39 c-12 -23 -20 -31 -21 -20 0 24 32 85 37 70 2 -6 -5 -29 -16
-50z m629 17 c0 -5 -5 -10 -11 -10 -5 0 -7 5 -4 10 3 6 8 10 11 10 2 0 4 -4 4
-10z m6231 -23 c-10 -9 -11 -8 -5 6 3 10 9 15 12 12 3 -3 0 -11 -7 -18z
m-6801 -27 c-6 -11 -13 -20 -16 -20 -2 0 0 9 6 20 6 11 13 20 16 20 2 0 0 -9
-6 -20z m-103 -37 c-3 -10 -5 -4 -5 12 0 17 2 24 5 18 2 -7 2 -21 0 -30z
m6432 -59 c-10 -23 -13 -25 -16 -11 -3 10 1 25 8 33 17 21 21 11 8 -22z m4025
4 c-10 -16 -22 -7 -17 13 4 15 8 17 14 8 4 -7 5 -17 3 -21z m-6182 -40 c-7 -7
-12 -8 -12 -2 0 14 12 26 19 19 2 -3 -1 -11 -7 -17z m2096 -60 c-13 -13 -15
-16 -4 -8 18 13 17 12 -3 -17 -20 -30 -52 -49 -35 -21 4 7 9 23 10 36 2 14 12
34 23 46 12 12 22 29 23 37 0 8 3 -1 5 -18 3 -25 -2 -38 -19 -55z m62 58 c0
-3 -4 -8 -10 -11 -5 -3 -10 -1 -10 4 0 6 5 11 10 11 6 0 10 -2 10 -4z m-6353
-28 c-3 -8 -6 -5 -6 6 -1 11 2 17 5 13 3 -3 4 -12 1 -19z m4163 -3 c-7 -9 -15
-13 -18 -10 -3 2 1 11 8 20 7 9 15 13 18 10 3 -2 -1 -11 -8 -20z m6220 -15 c0
-5 -5 -10 -11 -10 -5 0 -7 5 -4 10 3 6 8 10 11 10 2 0 4 -4 4 -10z m-6183 -32
c-3 -7 -5 -2 -5 12 0 14 2 19 5 13 2 -7 2 -19 0 -25z m6281 2 c-7 -11 -16 -20
-20 -20 -3 0 -15 -3 -25 -6 -11 -4 -6 4 12 20 36 31 50 33 33 6z m-6333 -20
c-3 -5 -11 -10 -16 -10 -6 0 -7 5 -4 10 3 6 11 10 16 10 6 0 7 -4 4 -10z m61
-12 c4 -7 3 -8 -4 -4 -8 5 -12 0 -12 -12 0 -11 -9 -22 -20 -25 -27 -7 -26 18
2 37 27 19 25 19 34 4z m1709 -127 c-8 -17 -18 -31 -21 -31 -7 0 3 59 19 115
l12 40 3 -47 c2 -29 -3 -59 -13 -77z m-1787 84 c-1 -14 -10 -33 -20 -42 -17
-15 -18 -14 -18 13 0 29 15 54 32 54 4 0 7 -11 6 -25z m6302 -4 c-12 -24 -30
-28 -30 -6 0 13 31 38 38 30 2 -2 -1 -13 -8 -24z m-6220 -6 c0 -6 -56 -35 -67
-35 -13 1 41 40 55 40 6 0 12 -2 12 -5z m1831 -36 c-9 -22 -10 -22 -10 -3 -1
11 2 24 6 27 12 12 14 0 4 -24z m4323 -4 c-26 -19 -31 -9 -8 16 11 12 20 16
22 9 2 -6 -4 -17 -14 -25z m-4438 -81 c-4 -9 -9 -15 -11 -12 -3 3 -3 13 1 22
4 9 9 15 11 12 3 -3 3 -13 -1 -22z m46 -6 c-7 -7 -12 -8 -12 -2 0 14 12 26 19
19 2 -3 -1 -11 -7 -17z m-1852 -8 c0 -5 -4 -10 -10 -10 -5 0 -10 5 -10 10 0 6
5 10 10 10 6 0 10 -4 10 -10z m1740 -25 c-7 -9 -15 -13 -18 -10 -3 2 1 11 8
20 7 9 15 13 18 10 3 -2 -1 -11 -8 -20z m4640 -5 c0 -5 -5 -10 -11 -10 -5 0
-7 5 -4 10 3 6 8 10 11 10 2 0 4 -4 4 -10z m-20 -37 c0 -5 -4 -15 -10 -23 -11
-18 -25 -7 -17 15 6 15 27 21 27 8z m-4708 -35 c-7 -7 -12 -8 -12 -2 0 14 12
26 19 19 2 -3 -1 -11 -7 -17z m4660 -5 c4 -13 -2 -18 -19 -19 -23 -2 -24 -1
-7 17 21 23 21 23 26 2z m-4968 -92 c-20 -39 -42 -71 -47 -71 -5 0 -34 -21
-65 -47 -51 -44 -53 -45 -39 -16 37 70 171 222 185 209 2 -2 -13 -36 -34 -75z
m250 65 c-3 -8 -13 -17 -22 -21 -13 -5 -13 -2 3 15 21 24 26 25 19 6z m-1587
-21 c-4 -8 -11 -15 -17 -15 -7 0 -7 6 0 21 13 23 26 19 17 -6z m1613 -19 c0
-2 -8 -10 -17 -17 -16 -13 -17 -12 -4 4 13 16 21 21 21 13z m-5764 -38 c-7
-34 -13 -44 -21 -36 -9 8 7 68 18 68 5 0 7 -13 3 -32z m5871 -3 c-4 -8 -11
-15 -17 -15 -7 0 -7 6 0 21 13 23 26 19 17 -6z m-1715 -47 c-19 -33 -47 -52
-36 -24 3 9 10 16 15 16 5 0 9 6 9 14 0 12 7 18 27 25 2 1 -5 -13 -15 -31z
m6343 22 c-3 -5 -14 -10 -23 -10 -15 0 -15 2 -2 10 20 13 33 13 25 0z m-5055
-49 c0 -16 -51 -71 -60 -66 -5 3 -16 -8 -25 -25 -8 -16 -18 -30 -20 -30 -12 0
-3 30 16 54 17 21 24 25 30 14 5 -7 9 -8 9 -2 0 11 38 64 46 64 2 0 4 -4 4 -9z
m-5459 -54 c-13 -13 -15 1 -4 30 7 17 8 17 11 -1 2 -10 -1 -23 -7 -29z m4180
-10 c-8 -8 -11 -7 -11 4 0 9 3 19 7 23 4 4 9 2 11 -4 3 -7 -1 -17 -7 -23z
m1149 -68 c-7 -11 -14 -18 -17 -15 -3 3 0 12 7 21 18 21 23 19 10 -6z m5110
-43 c0 -8 -4 -18 -10 -21 -5 -3 -10 3 -10 14 0 12 5 21 10 21 6 0 10 -6 10
-14z m-5149 -24 c-11 -16 -27 -35 -36 -42 -13 -11 -14 -10 -9 5 6 14 4 16 -7
11 -8 -4 -5 -1 5 6 11 7 26 21 35 30 26 27 34 20 12 -10z m-113 -54 c-9 -13
-20 -23 -26 -23 -6 0 -18 -9 -27 -20 -16 -19 -16 -19 -10 10 7 34 29 55 58 55
18 0 18 -2 5 -22z m-5126 -20 c-7 -7 -12 -8 -12 -2 0 14 12 26 19 19 2 -3 -1
-11 -7 -17z m5139 -11 c-10 -9 -11 -8 -5 6 3 10 9 15 12 12 3 -3 0 -11 -7 -18z
m-100 0 c-6 -8 -10 -16 -8 -18 1 -2 0 -3 -2 -2 -2 2 -10 -5 -18 -15 -14 -18
-14 -17 2 33 2 8 12 15 21 15 13 0 14 -3 5 -13z m-5067 -55 c-4 -15 -6 -31 -5
-36 1 -5 -18 -30 -42 -55 -24 -25 -51 -57 -61 -71 l-16 -24 0 24 c0 48 29 134
53 158 l24 24 -3 -54 -3 -53 10 43 c6 23 14 42 20 42 5 0 9 11 9 23 0 13 3 27
8 31 11 11 15 -22 6 -52z m4948 16 c-7 -7 -12 -8 -12 -2 0 14 12 26 19 19 2
-3 -1 -11 -7 -17z m60 -10 c-9 -18 -17 -41 -17 -50 -2 -21 -13 -34 -21 -25 -4
4 -1 13 6 22 8 10 9 15 1 15 -19 0 -12 31 12 51 32 27 38 23 19 -13z m109 -11
l-23 -22 17 28 c10 15 20 25 23 22 3 -3 -5 -16 -17 -28z m-68 -12 c-3 -9 -8
-14 -10 -11 -3 3 -2 9 2 15 9 16 15 13 8 -4z m-103 -14 c0 -10 -9 -21 -20 -24
-24 -6 -25 1 -3 25 20 23 23 23 23 -1z m-67 -11 c-19 -22 -29 -19 -20 5 4 8
13 15 22 15 13 0 12 -3 -2 -20z m-57 -32 c-39 -93 -47 -110 -52 -105 -3 3 2
18 11 34 l17 28 -27 -30 c-14 -16 -38 -47 -53 -69 -28 -41 -45 -32 -18 9 10
15 12 25 6 25 -6 0 -9 4 -5 9 3 5 0 13 -6 17 -8 4 -9 3 -5 -4 4 -7 2 -12 -4
-12 -6 0 -8 -6 -4 -12 5 -10 4 -10 -7 0 -10 9 -11 17 -3 29 10 17 143 112 156
113 4 0 2 -15 -6 -32z m-611 12 c-3 -5 -13 -10 -20 -10 -8 0 -19 -9 -25 -20
-6 -11 -15 -18 -21 -14 -13 7 8 33 36 44 28 12 37 12 30 0z m6265 0 c-8 -6
-24 -15 -35 -21 -16 -8 -15 -6 4 10 13 12 28 21 35 21 6 0 4 -5 -4 -10z
m-5530 -25 c-7 -8 -17 -15 -22 -15 -6 0 -5 7 2 15 7 8 17 15 22 15 6 0 5 -7
-2 -15z m0 -50 c-7 -8 -17 -15 -23 -15 -5 0 -2 9 8 20 21 23 35 19 15 -5z
m5510 10 c-7 -9 -15 -13 -19 -10 -3 3 1 10 9 15 21 14 24 12 10 -5z m-5645
-63 c-15 -16 -16 -15 -4 12 7 15 15 23 17 16 3 -7 -3 -19 -13 -28z m-82 -52
c-15 -27 -29 -46 -31 -41 -3 9 46 91 55 91 2 0 -8 -22 -24 -50z m40 25 c-3 -9
-8 -14 -10 -11 -3 3 -2 9 2 15 9 16 15 13 8 -4z m-4773 -43 c0 -5 -7 -17 -15
-28 -15 -19 -20 -8 -9 20 6 17 24 22 24 8z m4268 -78 c-16 -8 -28 -18 -28 -22
0 -4 -10 -13 -22 -21 l-23 -14 20 24 c29 36 47 49 64 49 10 -1 5 -7 -11 -16z
m-4285 -9 c-3 -9 -8 -14 -10 -11 -3 3 -2 9 2 15 9 16 15 13 8 -4z m4333 -24
c-3 -27 -55 -113 -77 -127 -7 -4 3 19 20 52 l32 58 -45 -42 c-49 -46 -56 -49
-56 -29 0 15 68 87 82 87 5 0 16 7 24 15 21 21 24 19 20 -14z m95 -14 c-10 -9
-11 -8 -5 6 3 10 9 15 12 12 3 -3 0 -11 -7 -18z m82 -13 c-26 -20 -63 -50 -80
-67 -34 -32 -41 -30 -22 4 10 19 125 99 142 99 5 0 -13 -16 -40 -36z m99 4
c-7 -7 -12 -8 -12 -2 0 14 12 26 19 19 2 -3 -1 -11 -7 -17z m-4662 -29 c-7
-11 -14 -18 -17 -15 -3 3 0 12 7 21 18 21 23 19 10 -6z m112 -21 c-6 -6 -8 -1
-7 14 3 32 7 36 12 14 3 -10 1 -22 -5 -28z m10299 -11 c-16 -16 -20 -5 -8 23
9 22 11 23 14 6 3 -10 0 -23 -6 -29z m-5853 14 c-7 -10 -28 -31 -47 -47 l-35
-29 18 28 c15 22 63 66 74 67 2 0 -3 -8 -10 -19z m-4396 -23 c-7 -7 -12 -8
-12 -2 0 14 12 26 19 19 2 -3 -1 -11 -7 -17z m4204 -30 c-9 -5 -16 -15 -16
-22 0 -7 -9 -21 -20 -31 -20 -18 -20 -17 1 31 30 69 43 84 47 54 2 -14 -3 -27
-12 -32z m6106 32 c-23 -22 -32 -25 -32 -12 0 5 10 14 23 20 32 15 33 14 9 -8z
m-10451 -18 c-6 -10 -8 -28 -5 -39 3 -12 1 -24 -5 -27 -15 -10 -14 57 1 72 17
17 20 15 9 -6z m4261 -14 c-7 -7 -12 -8 -12 -2 0 14 12 26 19 19 2 -3 -1 -11
-7 -17z m6129 -31 c-8 -8 -11 -4 -11 14 0 33 14 47 18 19 2 -12 -1 -27 -7 -33z
m-6042 -39 c-7 -13 -14 -18 -16 -11 -3 7 1 22 8 35 7 13 14 18 16 11 3 -7 -1
-22 -8 -35z m-4339 -20 c-11 -29 -20 -54 -20 -55 0 -2 -4 -3 -10 -3 -19 0 -10
49 16 79 14 17 28 31 30 31 2 0 -5 -24 -16 -52z m76 26 c-4 -9 -9 -15 -11 -12
-3 3 -3 13 1 22 4 9 9 15 11 12 3 -3 3 -13 -1 -22z m10369 -54 c-3 -5 -12 -10
-18 -10 -7 0 -6 4 3 10 19 12 23 12 15 0z m-10275 -40 c0 -5 -4 -10 -10 -10
-5 0 -10 5 -10 10 0 6 5 10 10 10 6 0 10 -4 10 -10z m10235 -9 c-3 -6 -14 -11
-23 -11 -15 1 -15 2 2 15 21 16 32 13 21 -4z m-10265 -30 c0 -5 -6 -14 -14
-20 -12 -10 -13 -8 -9 8 5 21 23 30 23 12z m-75 -97 c-3 -19 -10 -34 -14 -34
-5 0 -5 19 0 43 4 23 9 47 10 52 1 6 3 2 6 -8 3 -11 2 -34 -2 -53z m205 32 c0
-3 -4 -8 -10 -11 -5 -3 -10 -1 -10 4 0 6 5 11 10 11 6 0 10 -2 10 -4z m-187
-92 c-12 -28 -18 -34 -21 -21 -4 18 25 73 34 64 2 -2 -3 -21 -13 -43z m38 -87
c-41 -41 -42 -41 -31 -12 6 16 21 45 33 64 20 34 21 34 31 12 8 -19 4 -28 -33
-64z m-37 11 c-9 -18 -20 -44 -25 -58 -7 -23 -7 -23 -8 8 -1 18 9 47 22 67 27
41 35 30 11 -17z m10281 -26 c-8 -8 -12 0 -19 38 l-7 35 16 -34 c8 -19 13 -36
10 -39z m-35 -3 c0 -9 -7 -19 -15 -23 -16 -6 -18 5 -8 42 4 18 8 20 14 10 5
-7 9 -20 9 -29z m18 -52 c2 -10 -3 -17 -12 -17 -9 0 -16 5 -16 11 0 8 -5 8
-15 -1 -8 -7 -15 -9 -15 -5 0 12 34 35 45 31 6 -1 11 -10 13 -19z m-10111 -49
c-3 -7 -5 -2 -5 12 0 14 2 19 5 13 2 -7 2 -19 0 -25z m10123 15 c-1 -5 -17
-18 -37 -31 -21 -14 -31 -17 -24 -8 11 13 11 16 0 16 -8 1 0 7 16 15 36 16 45
18 45 8z m-10153 -77 c-4 -43 -3 -54 8 -50 7 3 15 -5 19 -21 6 -22 0 -34 -30
-67 l-37 -41 5 74 c5 66 26 159 37 159 2 0 1 -24 -2 -54z m65 -68 c-2 -5 -7
-8 -13 -8 -11 0 -12 51 -2 77 6 14 9 8 13 -22 3 -22 4 -43 2 -47z m65 -130
c-3 -7 -5 -2 -5 12 0 14 2 19 5 13 2 -7 2 -19 0 -25z m-20 -50 c-3 -7 -5 -2
-5 12 0 14 2 19 5 13 2 -7 2 -19 0 -25z m21 -66 c4 -49 -13 -57 -22 -11 -9 47
-7 61 7 57 6 -3 13 -23 15 -46z m29 6 c-3 -8 -6 -5 -6 6 -1 11 2 17 5 13 3 -3
4 -12 1 -19z m9743 -4 c0 -8 -4 -14 -10 -14 -5 0 -10 9 -10 21 0 11 5 17 10
14 6 -3 10 -13 10 -21z m-8 -106 c-2 -10 -6 -17 -9 -15 -8 9 -21 66 -15 72 10
9 30 -36 24 -57z m-9657 -58 c-3 -5 -11 -10 -16 -10 -6 0 -7 5 -4 10 3 6 11
10 16 10 6 0 7 -4 4 -10z m9401 -16 c-4 -9 -9 -15 -11 -12 -3 3 -3 13 1 22 4
9 9 15 11 12 3 -3 3 -13 -1 -22z m-9182 -14 c18 14 19 -46 1 -79 l-13 -26 -5
35 c-7 44 -7 89 0 72 3 -9 9 -10 17 -2z m9277 -52 c-2 -45 -6 -57 -12 -43 -4
11 -8 28 -8 37 -1 16 15 68 21 68 2 0 1 -28 -1 -62z m-9387 20 c-15 -49 -25
-71 -30 -66 -3 3 3 24 12 47 17 43 30 57 18 19z m9186 -38 c0 -11 -4 -20 -9
-20 -5 0 -7 9 -4 20 3 11 7 20 9 20 2 0 4 -9 4 -20z m-8965 -77 c-3 -19 -9
-33 -12 -30 -3 3 -2 25 2 49 5 24 10 37 12 30 3 -7 2 -29 -2 -49z m9012 -5
c-3 -7 -5 -2 -5 12 0 14 2 19 5 13 2 -7 2 -19 0 -25z m-65 0 c-7 -7 -12 -8
-12 -2 0 14 12 26 19 19 2 -3 -1 -11 -7 -17z m-9065 -50 c-3 -8 -6 -5 -6 6 -1
11 2 17 5 13 3 -3 4 -12 1 -19z m8981 -25 c-6 -34 -28 -25 -28 12 0 33 1 35
16 21 8 -9 14 -24 12 -33z m-8907 -16 c-13 -13 -15 1 -4 30 7 17 8 17 11 -1 2
-10 -1 -23 -7 -29z m161 11 c-9 -9 -12 -7 -12 12 0 19 3 21 12 12 9 -9 9 -15
0 -24z m688 11 c0 -5 -4 -9 -8 -9 -5 0 -9 7 -9 15 0 8 4 12 9 9 4 -3 8 -9 8
-15z m-237 -4 c-3 -9 -8 -14 -10 -11 -3 3 -2 9 2 15 9 16 15 13 8 -4z m8204
-37 c-3 -7 -5 -2 -5 12 0 14 2 19 5 13 2 -7 2 -19 0 -25z m-8642 -25 c-8 -27
-15 -50 -15 -53 0 -3 -5 3 -10 12 -7 12 -5 27 7 52 24 51 35 44 18 -11z m8414
15 c0 -31 -1 -31 -10 -10 -5 13 -7 28 -3 33 10 16 14 9 13 -23z m-8214 -17
c-7 -23 -25 -29 -25 -8 0 14 21 39 28 33 2 -3 1 -14 -3 -25z m-417 -15 c5 -38
-30 -134 -39 -109 -7 17 -4 69 7 121 6 31 28 23 32 -12z m62 -16 c0 -16 -4
-30 -10 -30 -5 0 -10 14 -10 30 0 17 5 30 10 30 6 0 10 -13 10 -30z m397 8
c-3 -8 -6 -5 -6 6 -1 11 2 17 5 13 3 -3 4 -12 1 -19z m-160 -20 c-3 -7 -5 -2
-5 12 0 14 2 19 5 13 2 -7 2 -19 0 -25z m8600 0 c-3 -8 -6 -5 -6 6 -1 11 2 17
5 13 3 -3 4 -12 1 -19z m-290 -22 c-4 -9 -11 -16 -17 -16 -11 0 -14 33 -3 44
11 10 26 -11 20 -28z m-8231 -6 c-3 -18 -2 -29 3 -25 17 10 22 -14 11 -55 -6
-22 -15 -38 -20 -35 -11 7 -14 128 -3 138 13 13 15 7 9 -23z m43 -15 c0 -5 -4
-3 -9 5 -5 8 -9 22 -9 30 0 16 17 -16 18 -35z m8151 1 c0 -19 -4 -37 -9 -40
-11 -7 -21 28 -14 54 9 32 23 23 23 -14z m40 -28 c0 -7 -5 -20 -10 -28 -8 -12
-10 -9 -10 13 0 15 5 27 10 27 6 0 10 -6 10 -12z m-5894 -24 c-4 -9 -9 -15
-11 -12 -3 3 -3 13 1 22 4 9 9 15 11 12 3 -3 3 -13 -1 -22z m-284 -6 c-7 -7
-12 -8 -12 -2 0 6 3 14 7 17 3 4 9 5 12 2 2 -3 -1 -11 -7 -17z m2838 7 c0 -8
-4 -15 -10 -15 -5 0 -7 7 -4 15 4 8 8 15 10 15 2 0 4 -7 4 -15z m3100 -41 c0
-14 -4 -23 -10 -19 -5 3 -10 15 -10 26 0 10 5 19 10 19 6 0 10 -12 10 -26z
m-791 -37 c1 -5 -3 -5 -9 -2 -5 3 -10 16 -9 28 0 21 1 21 9 2 5 -11 9 -24 9
-28z m620 -9 l-1 -53 -14 33 c-11 26 -12 36 -2 52 7 11 14 20 15 20 2 0 3 -24
2 -52z m-5760 10 c0 -18 -4 -42 -9 -53 -7 -19 -8 -18 -18 6 -11 29 -11 47 1
67 15 22 27 13 26 -20z m5438 -5 c-3 -10 -5 -4 -5 12 0 17 2 24 5 18 2 -7 2
-21 0 -30z m-5330 5 c-3 -8 -6 -5 -6 6 -1 11 2 17 5 13 3 -3 4 -12 1 -19z
m4183 12 c0 -5 -4 -10 -10 -10 -5 0 -10 5 -10 10 0 6 5 10 10 10 6 0 10 -4 10
-10z m-5440 -15 c0 -8 -4 -15 -10 -15 -5 0 -7 7 -4 15 4 8 8 15 10 15 2 0 4
-7 4 -15z m1440 5 c0 -5 -5 -10 -11 -10 -5 0 -7 5 -4 10 3 6 8 10 11 10 2 0 4
-4 4 -10z m980 2 c0 -13 -29 -48 -30 -35 0 6 5 15 10 18 6 4 8 11 5 16 -4 5
-1 9 4 9 6 0 11 -4 11 -8z m667 -14 c-3 -8 -6 -5 -6 6 -1 11 2 17 5 13 3 -3 4
-12 1 -19z m2053 12 c0 -5 -4 -10 -10 -10 -5 0 -10 5 -10 10 0 6 5 10 10 10 6
0 10 -4 10 -10z m880 0 c0 -5 -5 -10 -11 -10 -5 0 -7 5 -4 10 3 6 8 10 11 10
2 0 4 -4 4 -10z m987 -12 c-3 -8 -6 -5 -6 6 -1 11 2 17 5 13 3 -3 4 -12 1 -19z
m-7437 -25 c-1 -31 -3 -35 -11 -20 -6 9 -7 26 -4 37 10 30 15 24 15 -17z m880
16 c0 -6 -4 -7 -10 -4 -5 3 -10 11 -10 16 0 6 5 7 10 4 6 -3 10 -11 10 -16z
m404 6 c-4 -8 -8 -15 -10 -15 -2 0 -4 7 -4 15 0 8 4 15 10 15 5 0 7 -7 4 -15z
m1349 0 c-3 -9 -8 -14 -10 -11 -3 3 -2 9 2 15 9 16 15 13 8 -4z m947 5 c0 -5
-5 -10 -11 -10 -5 0 -7 5 -4 10 3 6 8 10 11 10 2 0 4 -4 4 -10z m777 -12 c-3
-8 -6 -5 -6 6 -1 11 2 17 5 13 3 -3 4 -12 1 -19z m70 -10 c-3 -7 -5 -2 -5 12
0 14 2 19 5 13 2 -7 2 -19 0 -25z m3060 10 c-3 -8 -6 -5 -6 6 -1 11 2 17 5 13
3 -3 4 -12 1 -19z m-7100 -10 c-3 -8 -6 -5 -6 6 -1 11 2 17 5 13 3 -3 4 -12 1
-19z m1443 18 c0 -3 -4 -8 -10 -11 -5 -3 -10 -1 -10 4 0 6 5 11 10 11 6 0 10
-2 10 -4z m670 -42 c0 -11 -9 -29 -20 -39 -20 -18 -20 -17 -20 8 0 14 5 29 10
32 6 3 10 16 10 28 0 18 2 19 10 7 5 -8 10 -24 10 -36z m708 15 c-3 -8 -7 -3
-11 10 -4 17 -3 21 5 13 5 -5 8 -16 6 -23z m692 6 c0 -14 -4 -25 -9 -25 -4 0
-6 11 -3 25 2 14 6 25 8 25 2 0 4 -11 4 -25z m-3511 -36 c1 20 3 21 16 11 8
-7 15 -19 15 -26 0 -17 -43 -103 -51 -104 -8 0 -19 81 -18 134 l0 41 19 -40
c15 -33 19 -36 19 -16z m1581 26 c0 -7 7 -15 15 -19 8 -3 15 -16 15 -30 0 -26
-15 -43 -24 -27 -4 5 -2 12 3 16 6 3 2 19 -9 38 -22 35 -26 52 -10 42 6 -3 10
-12 10 -20z m1060 5 c-6 -11 -15 -18 -21 -14 -6 4 -6 11 2 20 17 21 31 17 19
-6z m1180 6 c0 -7 -7 -19 -15 -26 -10 -9 -15 -9 -15 -1 0 6 5 11 11 11 6 0 9
7 5 15 -3 8 -1 15 4 15 6 0 10 -6 10 -14z m1851 -23 c-9 -16 -10 -14 -11 12 0
21 3 26 11 18 8 -8 8 -16 0 -30z m296 0 c-3 -10 -5 -4 -5 12 0 17 2 24 5 18 2
-7 2 -21 0 -30z m343 33 c0 -3 -4 -8 -10 -11 -5 -3 -10 -1 -10 4 0 6 5 11 10
11 6 0 10 -2 10 -4z m-4823 -28 c-3 -8 -6 -5 -6 6 -1 11 2 17 5 13 3 -3 4 -12
1 -19z m141 -3 c-3 -3 -9 2 -12 12 -6 14 -5 15 5 6 7 -7 10 -15 7 -18z m163
-18 c-8 -8 -11 -5 -11 9 0 27 14 41 18 19 2 -9 -1 -22 -7 -28z m238 -7 c0 -9
-4 -8 -9 5 -5 11 -9 27 -9 35 0 9 4 8 9 -5 5 -11 9 -27 9 -35z m693 28 c-7 -7
-12 -8 -12 -2 0 14 12 26 19 19 2 -3 -1 -11 -7 -17z m329 -5 c-8 -15 -10 -15
-11 -2 0 17 10 32 18 25 2 -3 -1 -13 -7 -23z m828 -25 l0 -53 -14 44 c-14 44
-12 61 6 61 5 0 9 -24 8 -52z m1274 30 c7 -23 1 -38 -14 -38 -5 0 -9 14 -9 30
0 35 15 40 23 8z m-3771 -18 c-2 -16 -6 -30 -8 -30 -2 0 -4 14 -4 30 0 17 4
30 8 30 5 0 7 -13 4 -30z m3415 -2 c-3 -7 -5 -2 -5 12 0 14 2 19 5 13 2 -7 2
-19 0 -25z m1093 -1 c0 -18 -2 -19 -10 -7 -13 20 -13 43 0 35 6 -3 10 -16 10
-28z m-6160 6 c0 -10 -5 -25 -10 -33 -7 -11 -10 -7 -10 18 0 17 5 32 10 32 6
0 10 -8 10 -17z m1127 -15 c-3 -7 -5 -2 -5 12 0 14 2 19 5 13 2 -7 2 -19 0
-25z m555 -55 l-10 -48 0 70 c1 54 3 65 11 48 6 -14 6 -38 -1 -70z m768 78 c0
-6 -4 -13 -10 -16 -5 -3 -10 1 -10 9 0 9 5 16 10 16 6 0 10 -4 10 -9z m950
-31 c-13 -32 -30 -40 -30 -15 0 9 7 18 15 21 8 4 15 13 15 22 0 8 3 12 6 9 4
-4 1 -20 -6 -37z m242 23 c6 -22 -1 -43 -13 -43 -5 0 -9 14 -9 30 0 33 15 41
22 13z m367 -56 l-13 -52 -7 50 c-5 40 -3 53 10 63 22 18 25 1 10 -61z m242
50 c-10 -9 -11 -8 -5 6 3 10 9 15 12 12 3 -3 0 -11 -7 -18z m1341 -29 c-2 -10
-8 -21 -13 -24 -11 -6 -12 37 -2 62 6 16 7 16 13 -2 4 -10 5 -27 2 -36z m1685
20 c-3 -7 -5 -2 -5 12 0 14 2 19 5 13 2 -7 2 -19 0 -25z m-6169 -38 c0 -9 -3
-7 -8 5 -5 11 -8 29 -8 40 0 16 2 15 8 -5 4 -14 8 -32 8 -40z m2223 19 c-6
-16 -10 -18 -10 -7 -1 22 12 55 16 42 2 -6 -1 -22 -6 -35z m143 -24 c7 -36 6
-38 -7 -20 -20 28 -30 63 -21 76 9 16 19 -5 28 -56z m218 48 c5 -20 0 -43 -10
-43 -4 0 -8 14 -9 30 -2 32 12 41 19 13z m591 -18 c-9 -19 -20 -35 -25 -35
-10 0 -10 1 3 39 6 17 17 31 25 31 11 0 11 -7 -3 -35z m1054 -27 c-2 -13 -4
-3 -4 22 0 25 2 35 4 23 2 -13 2 -33 0 -45z m737 -7 c-7 -8 -21 44 -16 59 4 9
9 2 13 -20 4 -19 6 -37 3 -39z m-5334 33 c0 -8 5 -14 10 -14 6 0 10 -10 10
-22 0 -15 -3 -19 -10 -12 -14 14 -31 76 -19 69 5 -4 9 -13 9 -21z m627 -36
c-2 -13 -4 -3 -4 22 0 25 2 35 4 23 2 -13 2 -33 0 -45z m1230 25 c-3 -10 -5
-4 -5 12 0 17 2 24 5 18 2 -7 2 -21 0 -30z m24 10 c-8 -15 -10 -15 -11 -2 0
17 10 32 18 25 2 -3 -1 -13 -7 -23z m899 -56 c7 -33 7 -63 1 -78 -8 -22 -9
-20 -18 21 -5 25 -6 49 -2 54 4 4 3 22 -2 39 -12 41 -11 56 2 35 5 -9 14 -41
19 -71z m1176 57 c-4 -9 -9 -15 -11 -12 -3 3 -3 13 1 22 4 9 9 15 11 12 3 -3
3 -13 -1 -22z m598 -12 c-7 -32 -24 -45 -24 -17 0 16 22 57 27 51 2 -1 0 -17
-3 -34z m417 24 c13 8 11 -3 -7 -37 -16 -32 -32 -33 -19 -2 5 10 7 27 7 38 -1
11 1 14 4 7 3 -6 10 -10 15 -6z m599 4 c0 -5 -5 -10 -11 -10 -5 0 -7 5 -4 10
3 6 8 10 11 10 2 0 4 -4 4 -10z m-6174 -58 c-12 -11 -17 7 -9 34 l8 29 3 -28
c2 -16 1 -31 -2 -35z m1456 36 c-7 -7 -12 -8 -12 -2 0 6 3 14 7 17 3 4 9 5 12
2 2 -3 -1 -11 -7 -17z m1320 -22 c2 -52 0 -94 -8 -126 -8 -35 -20 -10 -29 63
-4 39 -3 57 4 57 7 0 9 10 6 23 -5 17 -2 24 9 24 12 0 17 -12 18 -41z m869 1
c-17 -17 -24 -1 -10 25 12 21 14 21 17 4 2 -10 -1 -23 -7 -29z m69 27 c0 -8
-5 -12 -10 -9 -6 4 -8 11 -5 16 9 14 15 11 15 -7z m581 -25 c-6 -16 -10 -18
-10 -7 -1 22 12 55 16 42 2 -6 -1 -22 -6 -35z m1469 9 c0 -37 -15 -67 -27 -55
-4 4 -2 17 5 28 7 11 10 29 7 40 -4 11 -2 19 4 19 6 0 11 -15 11 -32z m-3424
-31 c-7 -25 -34 -63 -40 -56 -2 2 -7 15 -11 28 -6 20 -4 23 10 17 13 -5 16 -2
11 10 -4 9 -4 25 -1 35 6 17 8 18 22 4 9 -10 13 -24 9 -38z m383 6 c-1 -45 -1
-46 -10 -18 -8 27 -4 65 7 65 2 0 4 -21 3 -47z m1717 -17 c-3 -14 -11 -26 -16
-26 -11 0 -14 73 -3 84 12 12 26 -31 19 -58z m1794 42 c0 -18 -2 -20 -9 -8 -6
8 -7 18 -5 22 9 14 14 9 14 -14z m-5145 -78 c-13 -79 -14 -80 -9 -20 5 66 14
113 20 108 1 -2 -4 -42 -11 -88z m1721 70 c12 22 13 23 13 5 0 -21 -28 -78
-29 -59 0 6 -2 24 -4 40 -2 16 -1 20 1 9 5 -18 6 -18 19 5z m2487 0 c-3 -11
-7 -20 -9 -20 -2 0 -4 9 -4 20 0 11 4 20 9 20 5 0 7 -9 4 -20z m757 10 c0 -5
-4 -10 -10 -10 -5 0 -10 5 -10 10 0 6 5 10 10 10 6 0 10 -4 10 -10z m-5120
-21 c0 -6 -4 -7 -10 -4 -5 3 -10 11 -10 16 0 6 5 7 10 4 6 -3 10 -11 10 -16z
m194 6 c-4 -8 -8 -15 -10 -15 -2 0 -4 7 -4 15 0 8 4 15 10 15 5 0 7 -7 4 -15z
m3108 -9 c3 -14 1 -31 -3 -38 -6 -8 -9 1 -9 25 0 42 6 48 12 13z m1693 -20 c3
-8 7 -7 11 2 9 19 31 14 37 -9 4 -15 -5 -36 -28 -67 l-35 -45 -20 44 c-21 48
-26 89 -10 89 6 0 10 8 10 18 1 16 2 15 15 -2 8 -10 17 -24 20 -30z m655 40
c0 -3 -4 -8 -10 -11 -5 -3 -10 -1 -10 4 0 6 5 11 10 11 6 0 10 -2 10 -4z
m-4690 -21 c0 -8 -4 -15 -10 -15 -5 0 -7 7 -4 15 4 8 8 15 10 15 2 0 4 -7 4
-15z m1600 8 c0 -5 -5 -15 -10 -23 -8 -12 -10 -11 -10 8 0 12 5 22 10 22 6 0
10 -3 10 -7z m31 -43 c1 -19 -1 -50 -6 -69 l-7 -34 -15 34 c-12 28 -12 42 -2
77 13 48 27 45 30 -8z m781 0 c-7 -19 -10 -20 -15 -7 -4 10 -2 17 3 17 6 0 11
10 11 23 1 13 3 16 6 6 2 -8 0 -26 -5 -39z m591 -2 c3 -21 2 -40 -2 -43 -9 -5
-21 41 -21 78 0 33 17 7 23 -35z m687 12 c-6 -11 -8 -25 -5 -30 3 -5 0 -20 -6
-32 -13 -23 -13 -22 -20 11 -6 27 -3 41 14 63 23 31 36 23 17 -12z m-2440 -6
c0 -21 -4 -33 -10 -29 -17 10 -11 65 7 65 2 0 3 -16 3 -36z m554 -29 c4 -27 4
-34 -3 -20 -13 31 -24 93 -12 75 5 -8 12 -33 15 -55z m1486 21 c0 -45 -13 -68
-23 -42 -8 20 3 86 14 86 5 0 9 -20 9 -44z m204 0 c-3 -21 -9 -35 -11 -32 -3
3 -2 21 1 42 4 20 10 34 12 31 3 -3 2 -21 -2 -41z m1583 12 c-3 -7 -5 -2 -5
12 0 14 2 19 5 13 2 -7 2 -19 0 -25z m-4510 0 c-3 -8 -6 -5 -6 6 -1 11 2 17 5
13 3 -3 4 -12 1 -19z m1150 0 c-3 -8 -6 -5 -6 6 -1 11 2 17 5 13 3 -3 4 -12 1
-19z m1323 12 c0 -5 -2 -10 -4 -10 -3 0 -8 5 -11 10 -3 6 -1 10 4 10 6 0 11
-4 11 -10z m917 -27 c-3 -10 -5 -4 -5 12 0 17 2 24 5 18 2 -7 2 -21 0 -30z
m-4736 0 c-8 -15 -10 -15 -11 -2 0 17 10 32 18 25 2 -3 -1 -13 -7 -23z m5426
5 c-3 -8 -6 -5 -6 6 -1 11 2 17 5 13 3 -3 4 -12 1 -19z m-2386 -25 c-10 -17
-10 -16 -11 3 0 23 13 41 18 25 2 -6 -1 -18 -7 -28z m246 5 c-3 -8 -6 -5 -6 6
-1 11 2 17 5 13 3 -3 4 -12 1 -19z m440 -35 c12 -63 9 -80 -6 -40 -16 42 -24
97 -14 97 5 0 14 -26 20 -57z m777 33 c-4 -15 -1 -25 9 -29 12 -5 11 -17 -11
-77 -26 -73 -33 -75 -46 -14 -5 23 0 47 18 88 26 58 41 74 30 32z m1126 -16
c0 -13 -1 -13 -10 0 -5 8 -10 22 -10 30 0 13 1 13 10 0 5 -8 10 -22 10 -30z
m-1000 15 c0 -8 -4 -15 -10 -15 -5 0 -10 7 -10 15 0 8 5 15 10 15 6 0 10 -7
10 -15z m-1294 -17 c-3 -13 -6 -27 -6 -33 0 -5 -5 -3 -10 5 -15 23 -12 50 6
50 12 0 15 -6 10 -22z m-1969 -30 c-3 -7 -5 -2 -5 12 0 14 2 19 5 13 2 -7 2
-19 0 -25z m3063 -24 c0 -8 -4 -12 -10 -9 -5 3 -10 10 -10 16 0 5 5 9 10 9 6
0 10 -7 10 -16z m-20 -55 c0 -18 -4 -28 -10 -24 -5 3 -10 20 -10 36 0 18 4 28
10 24 6 -3 10 -20 10 -36z"/>
<path d="M5456 7884 c-5 -14 -4 -15 9 -4 17 14 19 20 6 20 -5 0 -12 -7 -15
-16z"/>
<path d="M5508 7352 c-16 -10 -28 -21 -28 -25 0 -5 14 1 30 13 17 12 30 23 30
26 0 5 0 5 -32 -14z"/>
<path d="M5485 7069 c-4 -6 -5 -12 -2 -15 2 -3 7 2 10 11 7 17 1 20 -8 4z"/>
<path d="M5410 6230 c-9 -6 -10 -10 -3 -10 6 0 15 5 18 10 8 12 4 12 -15 0z"/>
<path d="M7849 6153 c-13 -16 -12 -17 4 -4 9 7 17 15 17 17 0 8 -8 3 -21 -13z"/>
<path d="M5442 6123 c-24 -24 -24 -25 -2 -8 42 33 44 35 37 35 -4 0 -19 -12
-35 -27z"/>
<path d="M7199 5723 c-13 -16 -12 -17 4 -4 9 7 17 15 17 17 0 8 -8 3 -21 -13z"/>
<path d="M6955 5560 c-3 -5 -1 -10 4 -10 6 0 11 5 11 10 0 6 -2 10 -4 10 -3 0
-8 -4 -11 -10z"/>
<path d="M5448 5073 c7 -3 16 -2 19 1 4 3 -2 6 -13 5 -11 0 -14 -3 -6 -6z"/>
<path d="M5875 4889 c-4 -6 -5 -12 -2 -15 2 -3 7 2 10 11 7 17 1 20 -8 4z"/>
<path d="M5536 4575 c-3 -8 -1 -15 4 -15 6 0 10 7 10 15 0 8 -2 15 -4 15 -2 0
-6 -7 -10 -15z"/>
<path d="M1157 5897 c-11 -29 -9 -43 4 -30 6 6 9 19 7 29 -3 18 -4 18 -11 1z"/>
<path d="M6315 5049 c-4 -6 -5 -12 -2 -15 2 -3 7 2 10 11 7 17 1 20 -8 4z"/>
<path d="M5318 10325 c-3 -13 -2 -22 2 -20 11 7 20 45 10 45 -4 0 -10 -11 -12
-25z"/>
<path d="M8440 10305 c-14 -8 -20 -14 -15 -14 6 0 21 6 35 14 14 8 21 14 15
14 -5 0 -21 -6 -35 -14z"/>
<path d="M6044 10295 c-10 -8 -14 -15 -8 -15 6 0 17 7 24 15 16 19 9 19 -16 0z"/>
<path d="M6136 10265 c-9 -26 -7 -32 5 -12 6 10 9 21 6 23 -2 3 -7 -2 -11 -11z"/>
<path d="M2730 10250 c-9 -6 -10 -10 -3 -10 6 0 15 5 18 10 8 12 4 12 -15 0z"/>
<path d="M7410 10209 c-34 -22 -60 -43 -56 -46 3 -4 16 3 29 15 12 11 42 32
67 46 25 14 40 26 34 26 -6 0 -39 -18 -74 -41z"/>
<path d="M4949 10223 c-13 -16 -12 -17 4 -4 16 13 21 21 13 21 -2 0 -10 -8
-17 -17z"/>
<path d="M5065 10209 c-4 -6 -5 -12 -2 -15 2 -3 7 2 10 11 7 17 1 20 -8 4z"/>
<path d="M8418 10183 c6 -2 18 -2 25 0 6 3 1 5 -13 5 -14 0 -19 -2 -12 -5z"/>
<path d="M10684 10166 c-10 -8 -16 -17 -13 -20 3 -3 14 3 24 14 21 23 17 26
-11 6z"/>
<path d="M8405 10162 c-5 -4 -17 -16 -25 -27 -11 -15 -7 -14 13 4 24 22 32 31
25 31 -2 0 -7 -4 -13 -8z"/>
<path d="M2539 10143 c-13 -16 -12 -17 4 -4 9 7 17 15 17 17 0 8 -8 3 -21 -13z"/>
<path d="M1740 9845 c-7 -9 -10 -18 -7 -21 3 -3 10 4 17 15 13 25 8 27 -10 6z"/>
<path d="M1722 9770 c0 -14 2 -19 5 -12 2 6 2 18 0 25 -3 6 -5 1 -5 -13z"/>
<path d="M11288 9263 c7 -3 16 -2 19 1 4 3 -2 6 -13 5 -11 0 -14 -3 -6 -6z"/>
<path d="M11648 7383 c7 -3 16 -2 19 1 4 3 -2 6 -13 5 -11 0 -14 -3 -6 -6z"/>
<path d="M11817 6143 c-4 -3 -21 -6 -39 -6 -18 1 -27 -1 -20 -4 6 -3 10 -9 7
-13 -3 -5 9 -3 27 4 18 7 40 16 48 19 13 5 13 6 -1 6 -9 1 -19 -2 -22 -6z"/>
<path d="M11710 4945 c-14 -8 -20 -14 -15 -14 6 0 21 6 35 14 14 8 21 14 15
14 -5 0 -21 -6 -35 -14z"/>
<path d="M4340 2671 c0 -6 4 -13 10 -16 6 -3 7 1 4 9 -7 18 -14 21 -14 7z"/>
</g>
</svg>
